<svg xmlns="http://www.w3.org/2000/svg" xmlns:xlink="http://www.w3.org/1999/xlink" xmlns:lucid="lucid" width="1860.3" height="1823"><g transform="translate(-241.19639756944446 81.5)" lucid:page-tab-id="0_0"><path d="M0-500h2500v2500H0z" fill="#fff"/><path d="M540-74a6 6 0 0 1 6-6h1548a6 6 0 0 1 6 6v1808a6 6 0 0 1-6 6H546a6 6 0 0 1-6-6z" stroke="#e7157b" stroke-width="3" fill="#fff" fill-opacity="0"/><path d="M550.13-69.87l.18-.22h35.4l.4.4v35.4l-.4.4h-35.4l-.4-.4v-35.4zm34.66 1.12l-.16-.1H568c-15.1 0-16.68 0-16.8.06-.06.12-.06 1.72-.06 16.8v16.64l.1.15.15.1h33.2l.3-.3v-33.2zM554.32-58.7l.18-.2h11.58l.22.2.22.22v11.58l-.4.4h-11.6l-.2-.22-.2-.18v-11.6zm18.63 8.33c.65-.18 2.02-.18 2.6 0l.65.18c.12 0 .37.12.55.2.15.1.33.17.4.17.08 0 .15.04.18.1.04.04.22.2.37.26.18.07.28.18.28.22l.22.14c.1.03.22.1.22.18l.07.1c.06 0 .57.5.57.55 0 .03.07.14.18.25.1.14.22.25.22.3 0 .02.07.17.14.24.12.1.2.25.2.3 0 .03.07.24.17.46.1.18.22.44.22.5 0 .08.06.33.14.6.2.64.2 1.98 0 2.63-.08.26-.15.5-.15.6 0 .17-.12.38-.23.5-.03.03-.1.2-.14.4-.07.14-.1.28-.15.28-.03 0-.1.1-.18.25-.07.1-.18.3-.28.4-.08.07-.15.18-.15.22 0 0-.18.22-.4.43-.2.22-.4.4-.43.4-.04 0-.1.07-.22.15-.07.07-.3.2-.4.28l-.25.16c0 .04-.1.1-.3.14l-.4.18c-.1.1-.3.2-.5.2-.07 0-.32.06-.54.17-.68.2-2.02.2-2.67 0-.26-.1-.5-.18-.58-.18-.08 0-.3-.08-.5-.2-.23-.1-.4-.17-.48-.17-.04 0-.14-.07-.25-.18-.1-.1-.22-.18-.26-.18-.08 0-.2-.07-.3-.18l-.25-.18c-.07 0-.58-.5-.58-.58 0-.03-.03-.07-.1-.07-.08-.04-.15-.14-.2-.25-.06-.08-.1-.18-.13-.18-.04 0-.1-.1-.22-.3-.07-.14-.18-.32-.25-.36-.04-.03-.1-.14-.1-.18 0-.07-.08-.25-.15-.43-.1-.15-.2-.4-.22-.54 0-.12-.1-.4-.18-.66-.18-.58-.18-1.9 0-2.54.1-.25.18-.58.2-.72.05-.18.12-.33.16-.36l.14-.33c.04-.15.15-.33.22-.44.1-.1.18-.22.18-.26 0-.07.47-.68.8-1 .3-.3.9-.8 1-.8.05 0 .16-.08.23-.15.1-.07.3-.18.43-.22.15-.03.3-.1.33-.18.04-.03.22-.07.37-.1l.7-.22zm-7.78-7.16l-.1-.15h-4.8c-4.25 0-4.76.04-4.87.1-.06.08-.06.6-.06 4.86v4.77l.1.15c.15.1.2.1 4.85.1h4.73l.15-.14.1-.14v-4.7c0-4.7 0-4.75-.1-4.85zm10.78-9.16c.22-.17.7-.3.7-.13 0 .03.06.07.17.14.1.05.18.16.2.23 0 .1.12.25.2.4.07.1.14.25.14.3 0 .06.07.17.14.28.1.1.2.3.23.44.04.1.1.25.18.33.05.07.12.2.16.32.03.1.1.28.18.4.1.1.18.24.18.35.04.07.1.22.22.36.07.12.14.27.14.34 0 .04.07.18.14.3.08.1.15.28.2.4.02.1.13.24.17.3.06.08.13.23.17.34.03.1.1.3.18.4.07.1.14.28.18.36.04.07.1.25.18.36.12.14.2.25.2.32 0 .04.03.2.1.3.1.1.18.28.22.4.03.14.1.28.18.35.07.04.14.18.14.3.04.1.15.28.22.4.07.1.14.28.18.4.04.1.14.28.22.35.07.1.1.25.1.3 0 .06.08.17.15.28.08.1.2.3.23.43.03.1.1.26.18.33.26.3.33.9.15 1.23-.03 0-.03.02-.03.06-.15.18-.58.18-6 .15h-5.43l-.16-.18c-.18-.2-.18-.86 0-1.08.07-.07.18-.25.22-.36.03-.1.1-.3.18-.4.07-.07.14-.22.14-.33.04-.1.15-.28.22-.4.1-.14.18-.32.18-.36 0-.08.04-.2.15-.26.07-.1.14-.3.18-.4l.15-.32c.07-.07.15-.22.18-.33.04-.15.15-.33.22-.4.07-.1.14-.26.14-.33.03-.1.1-.3.2-.44l.16-.32c0-.06.07-.17.14-.28.07-.07.18-.25.22-.36.03-.15.1-.3.14-.33.07-.07.15-.2.18-.36l.18-.36c.08-.1.15-.24.18-.35 0-.07.1-.26.2-.4.1-.15.17-.3.17-.36 0-.05.07-.2.14-.27.08-.1.2-.3.2-.4.03-.1.1-.25.17-.32.04-.03.15-.2.18-.32.04-.1.1-.28.2-.4.06-.07.13-.2.13-.32.04-.1.14-.3.22-.43.1-.1.18-.26.18-.33 0-.03.07-.18.18-.3zm-.36 17.56c-.44-.18-2.43-.15-2.68.03-.07.07-.3.14-.43.18-.2.03-.38.1-.48.18-.08.07-.22.14-.3.18-.14.03-.43.25-.93.76-.48.5-.7.76-.77.94-.04.07-.1.2-.18.3-.08.06-.15.28-.2.42-.02.18-.1.4-.17.5-.2.37-.14 2.8.08 2.8.03 0 .07.1.07.25.03.15.1.37.18.48.08.1.2.25.23.36.07.18.18.32.5.68.1.1.22.22.26.3.06.07.17.18.28.25.07.07.25.18.32.3l.3.17c.06.03.2.1.32.18.1.1.32.18.43.18.14.04.32.1.43.18.33.18 2.54.18 2.8 0 .1-.07.28-.14.4-.14.13-.04.35-.1.46-.2l.4-.24c.14-.07.2-.14.2-.14 0-.04.1-.07.12-.1.15-.05.94-.84.98-1 .03-.06.07-.1.1-.1.04 0 .12-.1.15-.2l.24-.45c.08-.1.15-.28.18-.42.04-.1.1-.3.15-.4.22-.25.18-2.46 0-2.78-.07-.1-.15-.33-.15-.44-.03-.1-.1-.33-.18-.43-.1-.1-.18-.26-.2-.33 0-.07-.12-.22-.2-.3l-.28-.35c-.07-.07-.18-.22-.26-.25-.03-.08-.18-.18-.3-.26-.35-.36-.5-.43-.67-.5-.08-.08-.26-.15-.37-.22-.1-.07-.32-.14-.43-.18l-.25-.07c0-.04-.1-.08-.18-.1zm1.05-15.38c-.1-.14-.44-.03-.55.22-.07.07-.14.25-.18.36-.07.1-.14.25-.18.33-.03.1-.1.24-.18.35-.03.1-.1.25-.14.33-.08.07-.15.2-.18.32-.04.1-.1.25-.2.36-.02.08-.1.22-.17.36-.03.1-.14.3-.18.37-.04.1-.15.27-.2.35-.02.1-.13.3-.17.36l-.14.33c-.1.1-.16.26-.2.33-.03.07-.1.25-.18.36-.03.1-.1.26-.14.33-.07.07-.14.25-.22.36-.03.12-.1.3-.18.4-.03.08-.1.26-.18.37-.03.1-.1.25-.14.32-.08.07-.15.2-.2.32-.17.4-.3.65-.38.8-.15.25-.3.43-.22.54.07.25.98.22 4.3.22h4l.13-.1c.13-.16.06-.45-.12-.66-.07-.04-.14-.22-.18-.33-.04-.12-.1-.3-.22-.4-.07-.08-.1-.22-.1-.26 0-.07-.08-.22-.15-.33-.1-.13-.22-.3-.25-.46-.04-.14-.1-.25-.15-.3-.03-.02-.1-.17-.18-.3-.03-.16-.1-.34-.18-.4-.07-.08-.15-.23-.18-.34-.05-.14-.12-.32-.2-.4-.06-.1-.14-.2-.14-.28 0-.04-.07-.22-.14-.33-.07-.12-.18-.33-.22-.44-.07-.15-.14-.3-.18-.33-.03-.03-.1-.18-.14-.32-.08-.14-.15-.28-.22-.35-.04-.08-.1-.22-.15-.37-.02-.1-.13-.3-.2-.4-.07-.07-.15-.18-.15-.25s-.07-.22-.14-.32-.17-.32-.2-.43c-.04-.14-.12-.25-.15-.3z" stroke="#fff" stroke-opacity="0" fill="#fff"/><path d="M540-24v-56h56v56h-56zm46.14-45.7l-.44-.4h-35.4l-.16.24-.23.16v35.4l.4.44h35.45l.4-.4V-69.7zm-34.88.96c.05-.12 1.68-.12 16.74-.12h16.7l.1.12.1.1v33.27l-.27.28h-33.26l-.1-.1-.13-.1V-52c0-15.06 0-16.7.12-16.74zm15.06 10.08l-.22-.23h-11.6l-.16.24-.23.16v11.6l.24.22.16.22h11.6l.44-.4V-58.5zm9.24 8.28c-.56-.16-1.96-.16-2.58.06-.22.06-.56.1-.67.17-.16.05-.32.1-.38.1-.06.07-.17.12-.34.18-.1.05-.33.17-.4.22-.1.1-.2.17-.27.17-.04 0-.66.5-1 .78-.28.34-.78.96-.78 1 0 .07-.06.18-.17.3-.05.05-.17.27-.22.38-.06.17-.1.28-.17.34 0 .06-.06.22-.1.4-.07.1-.12.44-.24.72-.16.62-.16 1.96 0 2.52.12.22.17.5.17.67.05.1.1.34.22.5.1.17.16.4.16.45 0 .06.06.12.12.17.05.06.16.23.22.4.1.16.22.27.22.27.06 0 .12.12.17.17 0 .1.12.22.18.22l.1.1c0 .06.52.57.57.57 0 0 .1.1.28.2.1.07.23.18.28.18 0 0 .12.06.24.17.1.1.22.17.28.17.05 0 .28.1.44.22.23.06.45.17.56.17.06 0 .34.06.56.18.62.22 2.02.22 2.64 0 .28-.12.5-.17.6-.17.18 0 .4-.1.52-.16 0-.06.22-.17.4-.22.16 0 .27-.12.27-.12 0-.05.12-.1.23-.16l.4-.28c.1-.12.22-.17.22-.17.05 0 .22-.18.45-.4.22-.23.4-.4.4-.45 0 0 .04-.1.16-.23.05-.05.22-.28.28-.4.05-.1.1-.2.16-.2 0 0 .12-.12.12-.3.05-.16.16-.38.22-.38.06-.12.17-.34.17-.5 0-.12.06-.34.18-.62.22-.62.22-2.02 0-2.64-.12-.22-.17-.5-.17-.56 0-.1-.1-.33-.16-.56-.1-.16-.22-.4-.22-.44 0-.06-.06-.17-.17-.28l-.17-.23c0-.04-.1-.16-.17-.27-.1-.17-.2-.28-.2-.28 0-.05-.52-.56-.57-.56 0 0-.06-.06-.06-.12-.05-.06-.17-.1-.28-.17-.06-.04-.18-.1-.18-.16 0 0-.1-.1-.28-.22-.16-.06-.33-.17-.4-.22-.04-.06-.1-.12-.16-.12-.05 0-.28-.05-.44-.16-.17-.12-.4-.17-.5-.23-.18 0-.46-.06-.68-.18zm-20.1-7.16c.05-.12.56-.12 4.87-.12h4.76l.1.12c.1.1.1.16.1 4.87v4.7l-.1.17-.17.1h-4.7c-4.7 0-4.76 0-4.87-.1l-.12-.1v-4.77c0-4.3 0-4.82.12-4.87zm21.22-9.3c0-.06-.1-.06-.22-.06-.28 0-.68.34-.68.5 0 .06-.05.23-.16.34-.12.17-.17.34-.23.45 0 .05-.06.22-.12.33-.1.05-.17.22-.22.4-.06.1-.12.2-.17.33-.07.05-.12.16-.18.28 0 .1-.1.28-.17.4-.1.1-.17.2-.17.27 0 .06-.05.23-.16.34-.12.17-.17.34-.23.45 0 .05-.06.22-.12.33-.1.05-.17.22-.22.4l-.17.27c-.07.1-.12.22-.18.34 0 .1-.1.28-.17.4-.1.1-.17.2-.17.27 0 .06-.05.23-.16.34-.12.17-.17.34-.23.45 0 .05-.06.22-.12.33-.1.05-.17.22-.22.4-.06.1-.12.2-.17.33-.07.05-.12.16-.18.28 0 .1-.1.28-.17.4-.1.1-.17.2-.17.27 0 .06-.05.23-.16.34-.12.17-.17.34-.23.45 0 .05-.06.22-.12.33-.1.05-.17.22-.22.4-.06.1-.12.27-.17.33-.24.22-.24.9-.07 1.12l.17.16h5.43c5.43 0 5.88 0 6-.16 0-.06.05-.06.05-.12.17-.28.1-.9-.17-1.17-.04-.12-.1-.24-.16-.35-.05-.17-.1-.33-.22-.45-.06-.1-.1-.22-.1-.28 0-.05-.07-.16-.12-.28-.12-.1-.17-.28-.23-.4-.05-.1-.1-.27-.22-.38-.06-.1-.1-.28-.17-.4 0-.1-.1-.22-.17-.27-.04-.12-.1-.24-.16-.35-.05-.17-.1-.33-.22-.45-.06-.1-.1-.22-.1-.28 0-.05-.07-.16-.18-.33-.06-.12-.17-.3-.17-.35-.05-.1-.1-.28-.17-.4-.1-.1-.16-.27-.22-.38 0-.1-.1-.23-.17-.28-.04-.12-.1-.24-.16-.35-.05-.17-.1-.33-.22-.45-.06-.1-.1-.22-.1-.28 0-.05-.07-.16-.18-.33-.06-.12-.17-.3-.17-.35-.05-.1-.1-.28-.17-.4-.1-.1-.16-.27-.22-.38 0-.1-.1-.23-.17-.28-.04-.12-.1-.24-.16-.35-.05-.17-.1-.33-.22-.45-.06-.1-.1-.22-.1-.28 0-.05-.07-.16-.18-.33-.06-.12-.17-.3-.17-.35-.05-.1-.1-.22-.22-.28-.1 0-.17-.05-.17-.1zm-3.36 17.64c.78-.1 2.46 0 2.46.17 0 .05.12.05.28.1.12 0 .34.07.45.18.12.05.3.17.35.17.17.1.33.16.67.56.1.05.28.16.34.22.05.06.16.17.22.28.06.1.22.22.28.34.1.1.17.22.22.28 0 .05.06.22.17.33.1.1.17.34.17.45.06.1.1.34.17.45.2.28.2 2.52 0 2.8-.07.05-.12.22-.12.4-.06.1-.12.33-.23.44-.05.1-.17.28-.22.4-.06.1-.1.2-.17.2 0 0-.06.07-.06.13-.05.16-.84.95-1 1-.06 0-.12.06-.12.06 0 .06-.1.1-.22.17-.1.05-.28.17-.4.22-.1.1-.33.17-.44.23-.17 0-.34.05-.4.1-.27.23-2.5.23-2.8 0-.1-.05-.33-.1-.44-.16-.1 0-.34-.1-.45-.17-.1-.1-.28-.17-.33-.17-.06-.05-.17-.1-.28-.22-.12-.06-.23-.22-.34-.28-.1-.06-.22-.17-.28-.22-.06-.06-.17-.23-.22-.34-.4-.34-.45-.5-.56-.67 0-.06-.12-.23-.17-.34-.1-.1-.17-.32-.17-.44-.06-.16-.06-.28-.1-.28-.24 0-.3-2.4-.07-2.8.07-.1.12-.33.18-.5.06-.17.1-.34.17-.45.1-.05.17-.22.17-.28.05-.17.28-.45.78-.95.5-.5.78-.73.95-.78.06 0 .23-.06.28-.17.1-.06.28-.1.45-.17.17-.06.4-.1.45-.17.05-.04.28-.1.4-.1zm3.02-15.34c.28-.12.34-.06.45.33l.22.38c.1.17.16.28.16.34s.06.22.12.28c.1.1.16.28.22.4.06.1.1.27.17.33.04.05.16.22.2.4 0 .16.12.27.12.33.06.05.12.16.17.28.05.16.16.33.22.44.1.17.16.28.16.34s.06.22.12.28c.1.1.16.28.22.4.06.1.1.27.17.33.04.05.16.22.2.4 0 .16.12.27.12.33.06.05.12.16.17.28.05.16.16.33.22.44.1.17.16.28.16.34s.06.22.12.28c.1.1.16.28.22.4.06.1.1.27.17.33.2.22.27.5.1.6l-.1.18h-4c-3.35 0-4.24 0-4.36-.2 0-.18.12-.35.23-.57.1-.1.22-.4.45-.8 0-.1.1-.27.16-.32 0-.05.12-.22.17-.33 0-.1.1-.28.17-.33.06-.12.1-.28.17-.4.04-.16.16-.33.2-.4 0-.04.12-.2.12-.32.06-.12.17-.28.17-.34.05-.06.16-.22.22-.34 0-.1.1-.28.16-.33 0-.05.12-.22.17-.33 0-.1.1-.28.17-.4.06-.05.1-.2.17-.33.04-.16.16-.33.2-.4 0-.04.12-.2.12-.32.06-.12.17-.28.17-.34.05-.06.16-.22.22-.34 0-.1.1-.28.16-.33 0-.05.12-.22.17-.33 0-.1.1-.28.17-.4.06-.05.1-.16.22-.2z" stroke="#fff" stroke-opacity="0" fill="#e7157b"/><use xlink:href="#a" transform="matrix(1,0,0,1,611,-60) translate(0 21.52777777777778)"/><use xlink:href="#b" transform="matrix(1,0,0,1,611,-60) translate(56.477864583333336 21.52777777777778)"/><path d="M392 107.5c0 36.43-29.57 66-66 66s-66-29.57-66-66 29.57-66 66-66 66 29.57 66 66z" stroke="#000" stroke-opacity="0" stroke-width="3.13" fill="#0074df"/><path d="M345.23 110.14h-38.46l-11 41.18h60.46l-11-41.18zM345.27 82.68c0 10.64-8.63 19.28-19.27 19.28-10.64 0-19.27-8.64-19.27-19.28 0-10.63 8.63-19.27 19.27-19.27 10.64 0 19.27 8.65 19.27 19.28z" stroke="#000" stroke-opacity="0" stroke-width="3.13" fill="#fff"/><use xlink:href="#c" transform="matrix(1,0,0,1,230,182.5) translate(35.31206597222222 30.138888888888893)"/><use xlink:href="#d" transform="matrix(1,0,0,1,230,182.5) translate(11.196397569444443 75.3107638888889)"/><use xlink:href="#e" transform="matrix(1,0,0,1,230,182.5) translate(111.380859375 75.3107638888889)"/><path d="M346.16 497.9l-17.2-10.27c.25-.76.4-1.46.43-2.27v-.13c-.05-4.94-4.14-8.9-9.14-8.88-5.03.02-9.05 4.07-9.02 9 .04 4.95 4.13 8.92 9.13 8.9 2.4 0 4.42-.8 6.12-2.44l17.27 10.28c.4.26.8.4 1.27.4.87-.04 1.56-.45 2.03-1.16.76-1.15.4-2.7-.76-3.42zm-25.9-8.57c-2.24 0-4.06-1.78-4.06-3.97 0-2.2 1.82-4 4.06-4 2.2 0 4.02 1.8 4.02 4s-1.8 3.97-4.02 3.97z" stroke="#000" stroke-opacity="0" fill="#669df6"/><path d="M337.4 544.7c-25 .1-45.4-19.84-45.5-44.5-.08-24.7 20.13-44.8 45.15-44.9 25-.08 45.4 19.86 45.5 44.53v.18c-.1 24.6-20.22 44.53-45.14 44.7zm0-79.47h-.08c-19.58 0-35.35 15.65-35.35 34.87.1 19.3 15.95 34.86 35.44 34.86 19.58 0 35.35-15.73 35.35-34.95-.1-19.2-15.86-34.76-35.34-34.76z" stroke="#000" stroke-opacity="0" fill="#aecbfa"/><path d="M407.53 523.18c-2.7 0-5.06.76-7.23 2.38L362 503.98c.35-1.34.53-2.57.62-4 0-1.43-.18-2.56-.54-4l38.22-21.56c2.26 1.62 4.6 2.38 7.32 2.38 6.78 0 12.3-5.42 12.3-12.16 0-6.75-5.52-12.16-12.4-12.16-6.76 0-12.28 5.42-12.28 12.16-.1.47-.1.85 0 1.23l-38.67 21.85c-6.15-5.23-15.1-5.23-21.24 0-6.96 5.7-7.77 15.95-1.9 22.7 5.88 6.84 16.27 7.6 23.14 1.8l38.67 21.86c-.1.38-.1.76 0 1.24 0 6.75 5.52 12.16 12.3 12.16 6.86 0 12.37-5.4 12.37-12.16 0-6.75-5.5-12.16-12.37-12.16z" stroke="#000" stroke-opacity="0" fill="#4285f4"/><use xlink:href="#f" transform="matrix(1,0,0,1,291.9139492315068,552.5) translate(14.917968749999993 28.862847222222225)"/><use xlink:href="#g" transform="matrix(1,0,0,1,291.9139492315068,552.5) translate(0.6536458333333215 72.61284722222223)"/><use xlink:href="#h" transform="matrix(1,0,0,1,291.9139492315068,552.5) translate(35.608072916666664 116.36284722222223)"/><path d="M327.48 436.08h-2.96v-29h2.96zm0-58.02h-2.96v-58.02h2.96zm0-87.03h-2.96v-30.36h2.96zm0-103.53h-2.96V175h2.96z" stroke="#3a414a" stroke-width=".05" fill="#3a414a"/><path d="M326 173.5l1.48-.04v1.58h-2.96v-1.6z" fill="#3a414a"/><path stroke="#3a414a" stroke-width=".05" fill="#3a414a"/><path d="M326 451.84l-4.63-14.26h9.26z" fill="#3a414a"/><path d="M326 456.62l-6.67-20.52h13.34zm-2.6-17.57l2.6 8.02 2.6-8.02z" stroke="#3a414a" stroke-width=".05" fill="#3a414a"/><path d="M866 60h120v120H866V60z" stroke="#fff" stroke-opacity="0" fill="#693cc5"/><path d="M939.82 157.07l-2.85-1.5c1.6-3.02 2.7-5.73 3.64-9.04l3.1.9c-1.03 3.54-2.17 6.4-3.88 9.64zm2.98-29.3c-.57-9.4-3.23-17.23-8.43-25.06l2.66-1.72c5.55 8.28 8.37 16.64 8.97 26.58zm-21.1-38.6v-.02c-2.45-1.8-4.67-3.16-7.4-4.5l1.46-2.87c2.92 1.43 5.26 2.86 7.86 4.8zM934.8 131.84c-5.3-5.27-10.82-8.73-17.87-11.2l1-3.04c7.5 2.63 13.38 6.3 19.03 11.92zM948 150.94c-.6-1.6-1.28-3.07-2.02-4.56l2.87-1.42c.83 1.65 1.46 3.08 2.13 4.8z" stroke="#fff" stroke-opacity="0" fill="#fff"/><path d="M938.9 157.84l-1-3.02c4.02-1.36 7.24-3.1 10.6-5.72l1.96 2.53c-3.66 2.85-7.15 4.73-11.55 6.2zM888.04 119.2l-.73-3.1c3.75-.92 7-1.35 10.85-1.43l.07 3.2c-3.6.08-6.66.47-10.18 1.33zM914.3 109.02l-2.7-1.75c2.47-4 5.06-7.1 8.6-10.23l2.1 2.42c-3.3 2.93-5.7 5.8-8 9.56zM938.08 90.05l-1.1-3c2.55-.96 4.76-1.6 7.42-2.12l.6 3.2c-2.5.47-4.55 1.04-6.92 1.92zM906.4 154.4c-2.75-6.38-4-12.25-4.1-19.2.05-2.67.34-4.95.98-7.54.1-.57.24-1.14.35-1.74l3.2.63c-.1.6-.24 1.16-.35 1.76-.6 2.38-.87 4.45-.93 6.9.08 6.53 1.24 12.05 3.8 18.06z" stroke="#fff" stroke-opacity="0" fill="#fff"/><path d="M926 160c-22.08 0-40-17.94-40-39.97 0-.88 0-1.6.08-2.5 1.04-17.05 12.08-31 28.48-35.87 10.8-3.2 21.2-2.1 30.96 3.44 19.28 10.82 26.16 35.17 15.36 54.47-2.72 4.9-5.92 8.65-10.4 12.1-7.36 5.6-15.2 8.33-24.48 8.33zm0-76.82c-3.76 0-6.96.48-10.48 1.6-15.12 4.57-25.28 17.3-26.24 33 0 .8-.08 1.53-.08 2.25 0 20.26 16.48 36.77 36.8 36.77 4.24 0 7.84-.56 11.84-2 4.08-1.37 7.28-3.05 10.64-5.7 9.36-7.2 14.32-17.3 14.32-29.07 0-20.35-16.48-36.85-36.8-36.85z" stroke="#fff" stroke-opacity="0" fill="#fff"/><path d="M929.9 101.5c-3.92 0-7.1-3.2-7.1-7.1 0-3.9 3.18-7.1 7.1-7.1 3.9 0 7.08 3.2 7.08 7.1 0 3.93-3.16 7.1-7.08 7.1zm0-10.97c-2.15 0-3.9 1.74-3.9 3.88 0 2.17 1.75 3.9 3.9 3.9 2.13 0 3.87-1.73 3.87-3.9 0-2.13-1.74-3.87-3.88-3.87zM908.06 123.8c-3.9 0-7.08-3.17-7.08-7.08 0-3.9 3.17-7.1 7.08-7.1 3.92 0 7.1 3.2 7.1 7.1-.02 3.9-3.18 7.07-7.1 7.1zm0-10.96c-2.14 0-3.88 1.74-3.88 3.88 0 2.14 1.74 3.88 3.88 3.88 2.15 0 3.9-1.74 3.9-3.88v-.03c0-2.16-1.75-3.9-3.9-3.9zM943.25 144.32c-3.92 0-7.1-3.16-7.1-7.07-.02-3.92 3.15-7.1 7.07-7.1 3.9-.02 7.1 3.16 7.1 7.07v.03c0 3.9-3.16 7.07-7.07 7.07zm0-10.96h-.02c-2.14 0-3.88 1.75-3.88 3.9 0 2.14 1.74 3.87 3.88 3.87 2.14 0 3.9-1.73 3.9-3.88 0-2.14-1.74-3.9-3.88-3.9z" stroke="#fff" stroke-opacity="0" fill="#fff"/><use xlink:href="#i" transform="matrix(1,0,0,1,836,189) translate(30.02604166666667 30.138888888888893)"/><use xlink:href="#j" transform="matrix(1,0,0,1,836,189) translate(8.887803819444443 75.3107638888889)"/><path d="M393.5 107.5h451.88" stroke="#3a414a" stroke-width="3" fill="none"/><path d="M393.54 108.97h-1.6l.06-1.47-.04-1.47h1.58z" stroke="#3a414a" stroke-width=".05" fill="#3a414a"/><path d="M861.15 107.5l-14.27 4.64v-9.28z" stroke="#3a414a" stroke-width="3" fill="#3a414a"/><path d="M1264 65.42l57.98 8.62v5.08c0 7.55-25.98 13.65-58 13.65-32 0-57.98-6.1-57.98-13.64V73.6z" fill="#8c3123"/><path d="M1264.02 102.13c24.2 0 44.93-3.53 53.58-8.5l2.88-4.78 1.15-4.4v5.45l-19 81c0 5.08-17.3 9.1-38.6 9.1-21.33 0-38.6-4.02-38.6-9.1l-19.02-81v-5.35l4.38 9.27c8.76 4.87 29.27 8.3 53.24 8.3z" fill="#8c3123"/><path d="M1264 60c32 0 58 6.12 58 13.62 0 7.5-26 13.57-58 13.57s-58-6.02-58-13.58c0-7.56 26-13.62 58-13.62z" fill="#e05243"/><path d="M1264 96.6c29.84 0 54.4-5.2 57.62-12.06l-19.02 81c0 5.05-17.28 9.1-38.6 9.1-21.33 0-38.6-4.05-38.6-9.1l-19.03-81c3.23 6.85 27.78 12.07 57.62 12.07z" fill="#e05243"/><path d="M1250.35 104.38h25.1v24.96h-25.1v-24.96zM1242.76 138.17c6.83 0 12.38 5.5 12.38 12.3 0 6.8-5.55 12.3-12.38 12.3-6.84 0-12.4-5.5-12.4-12.3 0-6.8 5.56-12.3 12.4-12.3zM1294.8 162.2H1270l12.4-22.94 12.4 22.94z" fill="#fff"/><use xlink:href="#k" transform="matrix(1,0,0,1,1206,180) translate(16.28559027777778 30.138888888888893)"/><use xlink:href="#l" transform="matrix(1,0,0,1,1206,180) translate(28.499131944444443 75.3107638888889)"/><path d="M1546 80h120v120h-120V80z" stroke="#000" stroke-opacity="0" fill="#8c4fff"/><path d="M1597.1 163.44h4.36v-3.03h-4.36v3.04zm7.4 0h4.52v-3.03h-4.53v3.04zm-18-61.5l-19.48 9.67v60.15l19.5 6.64v-76.45zm3.04 19.16v39.3h4.45v3.04h-4.46v17.05c0 .5-.26.9-.68 1.25-.25.17-.58.25-.84.25-.16 0-.33 0-.5-.08l-22.5-7.65c-.6-.17-1.02-.75-1.02-1.43v-62.16c0-.58.34-1.1.84-1.34l22.5-11.17c.43-.25 1.02-.25 1.44.08.42.25.76.76.76 1.26v18.58h4.45v3.02h-4.46zm22.42 42.34h4.54v-3.03h-4.54v3.04zm.17-42.34h4.37v-3.02h-4.37v3.02zm-7.56 0h4.45v-3.02h-4.45v3.02zm-7.47 0h4.36v-3.02h-4.36v3.02zm47.88-9.5l-19.5-9.65v76.44l19.5-6.65V111.6zm3.02 61.24c0 .68-.42 1.26-1 1.43l-22.52 7.65c-.17.08-.34.08-.5.08-.26 0-.6-.08-.84-.25-.42-.34-.68-.76-.68-1.26v-17.06h-2.85v-3.03h2.86v-39.3h-2.85v-3.02h2.86V99.5c0-.5.34-1 .76-1.25.42-.33 1-.33 1.43-.08l22.5 11.17c.5.25.85.76.85 1.34v62.16zm-37.63-42.16l-2.77-1.1-7.48 19.74 2.77 1.1 7.47-19.74zm10.16 9.66c.6-.6.6-1.6 0-2.2l-5.96-6.04-2.1 2.2 4.87 4.94-4.87 4.96 2.1 2.18 5.96-6.04zm-23.1 6.04l-5.96-6.04c-.6-.6-.6-1.6 0-2.2l5.96-6.04 2.1 2.2-4.87 4.94 4.87 4.96-2.1 2.18z" stroke="#000" stroke-opacity="0" fill="#fff"/><use xlink:href="#m" transform="matrix(1,0,0,1,1516,209) translate(0.8062065972222285 30.138888888888893)"/><use xlink:href="#n" transform="matrix(1,0,0,1,1516,209) translate(129.50412326388889 30.138888888888893)"/><use xlink:href="#o" transform="matrix(1,0,0,1,1516,209) translate(25.954861111111114 75.3107638888889)"/><path d="M987.5 120h205.35" stroke="#3a414a" stroke-width="3" fill="none"/><path d="M987.54 121.47H986v-2.94h1.54z" stroke="#3a414a" stroke-width=".05" fill="#3a414a"/><path d="M1208.6 120l-14.25 4.64v-9.28z" stroke="#3a414a" stroke-width="3" fill="#3a414a"/><path d="M1313.72 130h211.66" stroke="#3a414a" stroke-width="3" fill="none"/><path d="M1313.76 131.47h-1.9l.7-2.94h1.2z" stroke="#3a414a" stroke-width=".05" fill="#3a414a"/><path d="M1541.15 130l-14.27 4.63v-9.27z" stroke="#3a414a" stroke-width="3" fill="#3a414a"/><path d="M866 450h120v120H866V450z" stroke="#000" stroke-opacity="0" fill="#01a88d"/><path d="M936.8 519.13c0 .54.17 1 .57 1.4.8.78 2.14.78 2.93 0 .32-.4.56-.86.56-1.4 0-.55-.24-1.1-.56-1.5-.4-.3-.95-.53-1.5-.53-.48 0-1.04.23-1.43.54-.4.4-.56.94-.56 1.5zm-1.5 3.5c-.95-.93-1.5-2.18-1.5-3.5 0-1.33.55-2.58 1.5-3.5 1.83-1.96 5.16-1.96 7.07 0 .95.92 1.5 2.17 1.5 3.5 0 1.32-.55 2.57-1.5 3.5-.95.94-2.23 1.5-3.58 1.5-1.36 0-2.55-.56-3.5-1.5zm-5.88-3.97l.64 3.82 2.7-.08c.4-.08.8.08 1.1.4l1.2 1.24c.32.3.48.7.48 1.1l-.16 2.72 3.9.63.7-2.67c.16-.4.4-.7.8-.85l1.6-.86c.4-.16.78-.16 1.18 0l2.54.93 1.75-3.5-2.22-1.5c-.4-.22-.64-.53-.64-1l-.33-1.72c-.08-.4.08-.78.32-1.17l1.66-2.1-2.78-2.73-2.15 1.7c-.3.25-.7.32-1.1.25l-1.76-.24c-.4-.08-.8-.3-1.03-.62l-1.5-2.26-3.42 1.7.87 2.5c.15.4.15.87-.1 1.26l-.78 1.56c-.16.4-.48.62-.88.78l-2.62.7zm-2.14 5.6l-1.04-6.46c-.08-.7.32-1.48 1.12-1.64l3.17-.93.24-.4-1.2-3.1c-.23-.72.1-1.5.72-1.9l5.87-2.95c.72-.3 1.5-.08 1.9.55l1.92 2.8.46.08 2.63-2.1c.62-.46 1.4-.46 1.97.08l4.7 4.6c.46.55.54 1.4.07 2.03l-2.07 2.67v.4l2.86 1.86c.64.4.88 1.25.48 1.87l-2.93 5.85c-.4.7-1.2.94-1.9.7l-3.1-1.17-.48.24-.9 3.2c-.14.62-.78 1.1-1.42 1.1h-.24l-6.5-1.03c-.72-.16-1.28-.8-1.28-1.57l.16-3.35-.32-.3-3.42.14c-.63 0-1.42-.54-1.5-1.25zm36.14-20.5l-49.4-.08v31.2l23.98.08c.72 0 1.43.23 2.07.78l9.85 9.44v-7.26c0-1.8 1.27-2.96 3-2.96h10.5v-31.2zm3.02-.08v31.28c0 1.72-1.27 2.96-3.02 2.96h-10.5v8.74c0 .94-.54 1.8-1.4 2.1-.25.16-.65.24-.97.24-.55 0-1.1-.23-1.6-.62L938 537.92h-24c-1.82 0-3-1.24-3-2.96v-31.28c0-2.18.78-2.96 3-2.96h49.42c1.83 0 3.02 1.25 3.02 2.96zm-46.47-7.4H926v-2.97h-6.03v2.97zm-25.5 0h22.48v-2.97h-22.48v2.97zm19.54-7.42h16.45v-2.96H914v2.96zm-19.53 0h13.5v-2.96h-13.5v2.96zm30.03-7.5h5.95v-2.95h-5.95v2.97zm-30.03 0h27v-2.95h-27v2.97zm12.4 24.27l2.2 2.1-9.04 9.37c-.56.47-1.2.78-1.83.78-.32 0-.63-.08-.87-.24-.8-.4-1.35-1.17-1.35-2.02v-8.9l-5.96-.07c-1.75 0-3.02-1.17-3.02-2.97v-29.72c0-1.7 1.27-2.96 3.02-2.96h44.96c1.83 0 3.02 1.17 3.02 2.96v22.3h-3.02v-22.3h-44.96v29.72h5.96c1.74 0 3 1.25 3 2.97v7.25l7.88-8.27z" stroke="#000" stroke-opacity="0" fill="#fff"/><use xlink:href="#p" transform="matrix(1,0,0,1,836,579) translate(30.02604166666667 30.138888888888893)"/><use xlink:href="#q" transform="matrix(1,0,0,1,836,579) translate(63.99305555555555 75.3107638888889)"/><path d="M1606 450c33.12 0 60 26.88 60 60 0 33.12-26.88 60-60 60-33.12 0-60-26.88-60-60 0-33.12 26.88-60 60-60zm0 114.6c30.12 0 54.6-24.48 54.6-54.6s-24.48-54.6-54.6-54.6-54.6 24.48-54.6 54.6 24.48 54.6 54.6 54.6zm35.76-40.68c1.56 0 2.76 1.32 2.76 2.76v16.68c0 1.56-1.2 2.76-2.76 2.76h-19.32c-1.08 0-2.04-.6-2.4-1.56l-27.12-58.08h-10.8c-.72 0-1.44-.24-1.92-.84-.48-.48-.84-1.2-.84-1.92l.12-16.68c0-1.56 1.2-2.76 2.64-2.76h24.24c.96 0 1.92.6 2.4 1.68l26.88 57.96zm-2.64 16.8v-11.28h-5.16c-1.08 0-2.04-.6-2.52-1.56l-26.88-58.08h-19.68v11.28h9.84c1.08 0 2.04.6 2.4 1.56l27.12 58.08zm-46.44-43.8l10.32 21.36c.36.84.36 1.68 0 2.4l-11.28 23.88c-.48.96-1.44 1.56-2.4 1.56h-20.76c-.84 0-1.8-.48-2.28-1.2-.48-.84-.48-1.8-.12-2.64l21.6-45.36c.48-.96 1.44-1.56 2.4-1.56 1.08 0 2.04.6 2.52 1.56zm-5.16 43.8l10.08-21.24-7.32-15-17.4 36.24z" stroke="#000" stroke-opacity="0" fill="#d45b07"/><use xlink:href="#r" transform="matrix(1,0,0,1,1516,579) translate(-61.271701388888914 30.138888888888893)"/><path d="M926 800c33.12 0 60 26.88 60 60 0 33.12-26.88 60-60 60-33.12 0-60-26.88-60-60 0-33.12 26.88-60 60-60zm0 114.6c30.12 0 54.6-24.48 54.6-54.6s-24.48-54.6-54.6-54.6-54.6 24.48-54.6 54.6 24.48 54.6 54.6 54.6zm35.76-40.68c1.56 0 2.76 1.32 2.76 2.76v16.68c0 1.56-1.2 2.76-2.76 2.76h-19.32c-1.08 0-2.04-.6-2.4-1.56l-27.12-58.08h-10.8c-.72 0-1.44-.24-1.92-.84-.48-.48-.84-1.2-.84-1.92l.12-16.68c0-1.56 1.2-2.76 2.64-2.76h24.24c.96 0 1.92.6 2.4 1.68l26.88 57.96zm-2.64 16.8v-11.28h-5.16c-1.08 0-2.04-.6-2.52-1.56l-26.88-58.08h-19.68v11.28h9.84c1.08 0 2.04.6 2.4 1.56l27.12 58.08zm-46.44-43.8L923 868.28c.36.84.36 1.68 0 2.4l-11.28 23.88c-.48.96-1.44 1.56-2.4 1.56h-20.76c-.84 0-1.8-.48-2.28-1.2-.48-.84-.48-1.8-.12-2.64l21.6-45.36c.48-.96 1.44-1.56 2.4-1.56 1.08 0 2.04.6 2.52 1.56zm-5.16 43.8l10.08-21.24-7.32-15-17.4 36.24z" stroke="#000" stroke-opacity="0" fill="#d45b07"/><use xlink:href="#s" transform="matrix(1,0,0,1,836,929.0000000000001) translate(-33.77604166666666 30.138888888888893)"/><path d="M1940 452.5c33.12 0 60 26.88 60 60 0 33.12-26.88 60-60 60-33.12 0-60-26.88-60-60 0-33.12 26.88-60 60-60zm0 114.6c30.12 0 54.6-24.48 54.6-54.6s-24.48-54.6-54.6-54.6-54.6 24.48-54.6 54.6 24.48 54.6 54.6 54.6zm35.76-40.68c1.56 0 2.76 1.32 2.76 2.76v16.68c0 1.56-1.2 2.76-2.76 2.76h-19.32c-1.08 0-2.04-.6-2.4-1.56l-27.12-58.08h-10.8c-.72 0-1.44-.24-1.92-.84-.48-.48-.84-1.2-.84-1.92l.12-16.68c0-1.56 1.2-2.76 2.64-2.76h24.24c.96 0 1.92.6 2.4 1.68l26.88 57.96zm-2.64 16.8v-11.28h-5.16c-1.08 0-2.04-.6-2.52-1.56l-26.88-58.08h-19.68v11.28h9.84c1.08 0 2.04.6 2.4 1.56l27.12 58.08zm-46.44-43.8l10.32 21.36c.36.84.36 1.68 0 2.4l-11.28 23.88c-.48.96-1.44 1.56-2.4 1.56h-20.76c-.84 0-1.8-.48-2.28-1.2-.48-.84-.48-1.8-.12-2.64l21.6-45.36c.48-.96 1.44-1.56 2.4-1.56 1.08 0 2.04.6 2.52 1.56zm-5.16 43.8l10.08-21.24-7.32-15-17.4 36.24z" stroke="#000" stroke-opacity="0" fill="#d45b07"/><use xlink:href="#t" transform="matrix(1,0,0,1,1850,581.5) translate(-54.762369791666686 30.138888888888893)"/><path d="M1941.47 431.88h-2.94v-41.63h2.94zm-334-111.7l.07.78.16.7.27.64.37.6.46.55.54.46.6.38.66.27.7.16.76.07h322l1.1.1 1.15.27 1.1.45 1 .6.9.76.75.9.6 1 .46 1.08.3 1.14.07 1.1v20.43h-2.94v-20.3l-.07-.76-.16-.7-.27-.64-.37-.6-.46-.55-.54-.46-.6-.38-.66-.27-.7-.16-.76-.07h-322l-1.1-.1-1.15-.27-1.1-.45-1-.6-.9-.76-.75-.9-.6-1-.46-1.08-.3-1.14-.07-1.1v-27.15h2.94zm0-106.18h-2.94v-12.5h2.94z" stroke="#3a414a" stroke-width=".05" fill="#3a414a"/><path d="M1607.47 201.54h-2.94V200h2.94z" fill="#3a414a"/><path stroke="#3a414a" stroke-width=".05" fill="#3a414a"/><path d="M1940 447.65l-4.63-14.27h9.27z" fill="#3a414a"/><path d="M1940 452.42l-6.66-20.52h13.33zm-2.6-17.56l2.6 8 2.6-8z" stroke="#3a414a" stroke-width=".05" fill="#3a414a"/><use xlink:href="#u" transform="matrix(1,0,0,1,1905.205078125,352.6118089858779) translate(0 30.138888888888893)"/><path d="M1237.9 786a6 6 0 0 1 6-6h608a6 6 0 0 1 6 6v468a6 6 0 0 1-6 6h-608a6 6 0 0 1-6-6z" stroke="#000" stroke-width="3" fill="#fff"/><path d="M1257.9 800h120v120h-120V800z" stroke="#fff" stroke-opacity="0" stroke-width="2" fill="#cc2264"/><path d="M1343.5 850.4v-9.6c0-.88-.7-1.6-1.56-1.6h-22.44v-3.36c3.22-.64 5.58-3.04 6.23-6.24.92-4.32-1.9-8.56-6.23-9.44-4.33-.88-8.53 1.92-9.44 6.24-.86 4.32 1.9 8.56 6.23 9.44v3.36h-22.38c-.92 0-1.58.72-1.58 1.6v6.4h-12.85c-.87 0-1.6.72-1.6 1.6v8c0 .88.73 1.6 1.6 1.6h12.84v3.2h-12.85c-.87 0-1.6.72-1.6 1.6v8c0 .88.73 1.6 1.6 1.6h12.84v6.4c0 .88.66 1.6 1.58 1.6h22.37v3.36c-3.23.64-5.6 3.04-6.24 6.24-.86 4.32 1.9 8.56 6.23 9.44 4.32.88 8.58-1.92 9.43-6.24.92-4.32-1.9-8.56-6.23-9.44v-3.36h22.44c.85 0 1.57-.72 1.57-1.6v-8h-3.2v6.4h-44.8v-4.8h12.8c.9 0 1.63-.72 1.63-1.6v-8c0-.88-.73-1.6-1.64-1.6h-12.8v-3.2h12.8c.9 0 1.63-.72 1.63-1.6v-8c0-.88-.73-1.6-1.64-1.6h-12.8v-4.8h44.8v8zm-20.78 41.6c0 2.64-2.17 4.8-4.8 4.8-2.68 0-4.78-2.16-4.78-4.8 0-2.64 2.1-4.8 4.8-4.8 2.6 0 4.78 2.16 4.78 4.8zm-16-27.2v4.8h-25.6v-4.8zm0-14.4v4.8h-25.6v-4.8zm6.42-22.4c0-2.64 2.1-4.8 4.8-4.8 2.6 0 4.78 2.16 4.78 4.8 0 2.64-2.17 4.8-4.8 4.8-2.68 0-4.78-2.16-4.78-4.8z" stroke="#fff" stroke-opacity="0" stroke-width="2" fill="#fff"/><path d="M1356.33 853.6h-32.03c-.88 0-1.6.72-1.6 1.6v11.2c0 .88.72 1.6 1.6 1.6h32.03c.88 0 1.58-.72 1.58-1.6v-11.2c0-.88-.7-1.6-1.57-1.6zm-1.62 11.2h-28.8v-8h28.8z" stroke="#fff" stroke-opacity="0" stroke-width="2" fill="#fff"/><use xlink:href="#v" transform="matrix(1,0,0,1,1227.9119545447961,929.0000000000001) translate(16.95421006944443 30.138888888888893)"/><use xlink:href="#w" transform="matrix(1,0,0,1,1227.9119545447961,929.0000000000001) translate(96.0232204861111 30.138888888888893)"/><use xlink:href="#x" transform="matrix(1,0,0,1,1227.9119545447961,929.0000000000001) translate(18.48090277777777 75.3107638888889)"/><path d="M1417.9 1060c33.13 0 60 26.88 60 60 0 33.12-26.87 60-60 60-33.1 0-60-26.88-60-60 0-33.12 26.9-60 60-60zm0 114.6c30.13 0 54.6-24.48 54.6-54.6s-24.47-54.6-54.6-54.6c-30.1 0-54.6 24.48-54.6 54.6s24.5 54.6 54.6 54.6zm35.77-40.68c1.56 0 2.76 1.32 2.76 2.76v16.68c0 1.56-1.2 2.76-2.76 2.76h-19.32c-1.08 0-2.04-.6-2.4-1.56l-27.12-58.08h-10.8c-.72 0-1.44-.24-1.92-.84-.47-.48-.83-1.2-.83-1.92l.12-16.68c0-1.56 1.2-2.76 2.63-2.76h24.24c.96 0 1.92.6 2.4 1.68l26.88 57.96zm-2.64 16.8v-11.28h-5.16c-1.08 0-2.04-.6-2.52-1.56l-26.88-58.08h-19.68v11.28h9.83c1.08 0 2.04.6 2.4 1.56l27.12 58.08zm-46.44-43.8l10.3 21.36c.37.84.37 1.68 0 2.4l-11.27 23.88c-.48.96-1.44 1.56-2.4 1.56h-20.76c-.84 0-1.8-.48-2.28-1.2-.5-.84-.5-1.8-.13-2.64l21.6-45.36c.48-.96 1.44-1.56 2.4-1.56 1.08 0 2.04.6 2.52 1.56zm-5.17 43.8l10.08-21.24-7.3-15-17.4 36.24z" stroke="#000" stroke-opacity="0" fill="#d45b07"/><use xlink:href="#y" transform="matrix(1,0,0,1,1327.9119545447961,1189) translate(-39.806857638888886 30.138888888888893)"/><path d="M1717.9 1060c33.13 0 60 26.88 60 60 0 33.12-26.87 60-60 60-33.1 0-60-26.88-60-60 0-33.12 26.9-60 60-60zm0 114.6c30.13 0 54.6-24.48 54.6-54.6s-24.47-54.6-54.6-54.6c-30.1 0-54.6 24.48-54.6 54.6s24.5 54.6 54.6 54.6zm35.77-40.68c1.56 0 2.76 1.32 2.76 2.76v16.68c0 1.56-1.2 2.76-2.76 2.76h-19.32c-1.08 0-2.04-.6-2.4-1.56l-27.12-58.08h-10.8c-.72 0-1.44-.24-1.92-.84-.47-.48-.83-1.2-.83-1.92l.12-16.68c0-1.56 1.2-2.76 2.63-2.76h24.24c.96 0 1.92.6 2.4 1.68l26.88 57.96zm-2.64 16.8v-11.28h-5.16c-1.08 0-2.04-.6-2.52-1.56l-26.88-58.08h-19.68v11.28h9.83c1.08 0 2.04.6 2.4 1.56l27.12 58.08zm-46.44-43.8l10.3 21.36c.37.84.37 1.68 0 2.4l-11.27 23.88c-.48.96-1.44 1.56-2.4 1.56h-20.76c-.84 0-1.8-.48-2.28-1.2-.5-.84-.5-1.8-.13-2.64l21.6-45.36c.48-.96 1.44-1.56 2.4-1.56 1.08 0 2.04.6 2.52 1.56zm-5.17 43.8l10.08-21.24-7.3-15-17.4 36.24z" stroke="#000" stroke-opacity="0" fill="#d45b07"/><use xlink:href="#z" transform="matrix(1,0,0,1,1627.9119545447961,1189) translate(-0.5837673611111143 30.138888888888893)"/><path d="M592.5 800h120v120h-120V800z" stroke="#fff" stroke-opacity="0" stroke-width="2" fill="#3b48cc"/><path d="M672.9 864.78l-10.6 10.55c2-.56 3.64-1.2 5.5-2.24 1.08.63 1.67 1.67 1.9 2.87 0 2.96-6.2 6.16-15.4 7.43-3.06.4-5.56.57-8.6.57h-1.6c-12.94-.25-22.4-4.32-22.4-8 .16-1.2.8-2.16 1.9-2.88 5 2.8 13.17 4.47 22.1 4.47h.16l.92-3.2h-1.1c-8.8 0-16.97-1.76-21.26-4.47-1.75-1.12-2.73-2.4-2.73-3.44v-7.44c4.9 3.76 14.63 5.68 24 5.68 1.25 0 2.5 0 3.75-.08l.92-3.2c-1.63.08-3.1.16-4.68.16-13.72 0-24-4.23-24-8 .16-1.27.8-2.23 1.9-2.87 4.4 2.5 11.2 4 18.88 4.4l.1-3.2c-7.55-.4-14.4-2-18.17-4.47-1.73-1.03-2.65-2.3-2.7-3.43v-7.36c4.9 3.76 14.63 5.68 24 5.68h.32l1.74-3.2h-2.07c-13.72 0-24-4.16-24-8 0-3.75 10.28-8 24-8 4.84 0 8.97.5 13.7 1.6h8.82c-4.84-2.95-13.1-4.78-22.53-4.78-13.18 0-27.22 3.9-27.22 11.2V844c.1 1.9.93 3.5 2.45 4.7-1.52 1.3-2.34 2.9-2.45 4.8v12.8c.1 2 .93 3.6 2.45 4.88-1.52 1.2-2.34 2.8-2.45 4.8v13.1c.44 7.03 14.2 10.8 27.2 10.8 13.02 0 26.8-3.76 27.22-10.88V875.88c-.05-1.9-.92-3.6-2.45-4.78 1.53-1.2 2.34-2.88 2.45-4.8zm-3.2 23.98c0 3.76-10.3 8-24 8-13.72 0-24-4.16-24-8v-7.35c4.9 3.68 14.63 5.68 24 5.68 9.35 0 19.1-2 24-5.67z" stroke="#fff" stroke-opacity="0" stroke-width="2" fill="#fff"/><path d="M628.5 844.03c0 1.1-.9 2-2 2s-2-.9-2-2 .9-2 2-2 2 .9 2 2zM628.5 866.43c0 1.1-.9 2-2 2s-2-.9-2-2 .9-2 2-2 2 .9 2 2zM628.5 888.83c0 1.1-.9 2-2 2s-2-.9-2-2 .9-2 2-2 2 .9 2 2zM649.68 882.37c-.28 0-.52-.06-.8-.22-.65-.38-.93-1.14-.73-1.85l9-29.95h-9.08c-.88.06-1.6-.65-1.6-1.58 0-.27.04-.54.2-.76l9.58-19.2c.28-.55.8-.88 1.45-.88h20.8c.9-.06 1.6.65 1.65 1.52.04.22 0 .38-.04.6L676 842.3h8.98c.88.05 1.6.75 1.6 1.63 0 .43-.16.76-.44 1.1l-35.2 36.8c-.32.38-.72.54-1.24.54zm1-35.18h8.62c.52 0 .96.2 1.28.6.28.43.4.92.24 1.4l-7.7 25.6 28.03-29.24h-7.46c-.9 0-1.65-.65-1.7-1.52 0-.22 0-.44.1-.6l4.08-12.3h-17.6z" stroke="#fff" stroke-opacity="0" stroke-width="2" fill="#fff"/><use xlink:href="#p" transform="matrix(1,0,0,1,562.4904993665782,929.0000000000001) translate(30.02604166666667 30.138888888888893)"/><use xlink:href="#A" transform="matrix(1,0,0,1,562.4904993665782,929.0000000000001) translate(7.7484809027777715 75.3107638888889)"/><path d="M1657.9 1460h120v120h-120v-120z" stroke="#000" stroke-opacity="0" fill="#01a88d"/><path d="M1753.95 1518.5c-1.68 0-3.03-1.36-3.03-3.04 0-1.6 1.35-2.94 3.03-2.94 1.6 0 2.94 1.35 2.94 2.94 0 1.68-1.36 3.03-2.95 3.03zm-47.88 40.4l-4.87-2.86 10-6.3-1.6-2.52-11.34 7.05-8.82-5.12v-13.36l8.3-5.55-1.67-2.52-8.23 5.54-8.9-5.12v-7.3l9.74-5.55-1.5-2.6-8.24 4.7v-5.55l8.98-5.12 9 5.12v5.8l-6.8 4.03 1.58 2.6 6.72-4.03 6.72 4.03 1.52-2.6-6.72-4.03v-5.88l8.3-5.55c.43-.25.68-.75.68-1.26v-10.5h-3.02v9.75l-7.56 5.05-8.9-5.13v-13.27l7.47-4.37V1499h3.04v-14.28l6.13-3.6 11.84 3.94v43.1l-21.74 13.1 1.5 2.5 20.25-12.08v23.26l-11.83 3.95zm44.85-23.86c0 1.6-1.34 2.94-3.02 2.94s-3.02-1.35-3.02-2.94c0-1.68 1.34-3.03 3.02-3.03s3.02 1.36 3.02 3.04zM1735.9 1550c0 1.67-1.36 3-2.95 3-1.68 0-3.03-1.33-3.03-3 0-1.7 1.35-3.04 3.03-3.04 1.6 0 2.94 1.35 2.94 3.03zm-1.52-60c0-1.67 1.34-3 3.02-3s3.02 1.33 3.02 3c0 1.7-1.34 3.04-3.02 3.04s-3.02-1.35-3.02-3.03zm19.57 19.5c-2.86 0-5.13 1.93-5.8 4.54h-27.2v-7.56h16.45c.84 0 1.5-.68 1.5-1.52v-9.15c2.62-.66 4.55-3.02 4.55-5.8 0-3.35-2.7-6.04-6.05-6.04-3.28 0-5.96 2.7-5.96 6.05 0 2.78 1.93 5.14 4.45 5.8v7.74h-14.96v-19.58c0-.58-.42-1.17-1-1.42l-13.54-4.46c-.42-.16-.84-.08-1.26.1l-17.97 10.5c-.5.32-.76.83-.76 1.33v14.12l-9.73 5.55c-.5.33-.76.75-.76 1.34v18c0 .58.26 1 .77 1.33l9.74 5.55v14.1c0 .5.26 1.02.77 1.35l17.97 10.5c.26.1.5.17.76.17.17 0 .34 0 .5-.08l13.53-4.46c.6-.25 1-.84 1-1.42v-18.06h10.5v6.2c-2.6.68-4.53 3.04-4.53 5.8 0 3.37 2.7 6.06 6.05 6.06 3.27 0 5.96-2.7 5.96-6.05 0-2.78-1.92-5.14-4.52-5.8v-7.74c0-.75-.68-1.42-1.43-1.42h-12v-7.56h18.72l3.2 4.28c-.6.92-.93 2.02-.93 3.28 0 3.27 2.68 5.96 5.96 5.96 3.36 0 6.05-2.7 6.05-5.96 0-3.36-2.7-6.05-6.05-6.05-1 0-1.93.24-2.77.74l-3.53-4.62c-.25-.42-.76-.58-1.18-.58h-19.48v-7.56h27.2c.68 2.6 2.95 4.53 5.8 4.53 3.28 0 5.97-2.68 5.97-6.04 0-3.27-2.68-5.96-5.95-5.96z" stroke="#000" stroke-opacity="0" fill="#fff"/><use xlink:href="#p" transform="matrix(1,0,0,1,1627.9119545447961,1589) translate(30.02604166666667 30.138888888888893)"/><use xlink:href="#B" transform="matrix(1,0,0,1,1627.9119545447961,1589) translate(28.879123263888886 75.3107638888889)"/><path d="M1491.32 1520.02c0 40.5-33 73.36-73.36 73.36-40.5 0-73.36-32.87-73.36-73.36 0-40.5 32.87-73.36 73.36-73.36 40.35 0 73.36 32.86 73.36 73.36z" stroke="#000" stroke-opacity="0" stroke-width="9.38" fill="#fff"/><path d="M1418 1463.36l-53.37 26.62 20.06 70 33.3 16.66 33.3-16.65 20.05-70.02-53.36-26.62zm-10.9 83.7l-16.1-16.98 7.25-6.9 9.18 9.73 33.72-33.06 7.04 7.02-41.1 40.2z" stroke="#000" stroke-opacity="0" stroke-width="9.38" fill="#020302"/><path d="M1417.9 1440c-44.15 0-80 35.84-80 80s35.85 80 80 80c44.17 0 80-35.84 80-80s-35.83-80-80-80zm0 153.28c-40.47 0-73.27-32.8-73.27-73.28 0-40.48 32.8-73.28 73.28-73.28 40.5 0 73.3 32.8 73.3 73.28 0 40.48-32.8 73.28-73.3 73.28z" stroke="#000" stroke-opacity="0" stroke-width="9.38"/><path d="M1448.15 1506.83l-41.07 40.2-16.05-17.04 7.26-6.88 9.07 9.67 33.76-33.12 7.02 7.15z" stroke="#000" stroke-opacity="0" stroke-width="9.38" fill="#fff"/><use xlink:href="#C" transform="matrix(1,0,0,1,1307.9119545447961,1609) translate(48.879123263888886 30.138888888888893)"/><use xlink:href="#D" transform="matrix(1,0,0,1,1307.9119545447961,1609) translate(35.002170138888886 75.3107638888889)"/><path d="M1607.47 429.38h-2.94v-44.44h2.94zm0-82.1h-2.94v-54.1h2.94zm0-133.28h-2.94v-12.5h2.94z" stroke="#3a414a" stroke-width=".05" fill="#3a414a"/><path d="M1607.47 201.54h-2.94V200h2.94z" fill="#3a414a"/><path stroke="#3a414a" stroke-width=".05" fill="#3a414a"/><path d="M1606 445.15l-4.63-14.27h9.27z" fill="#3a414a"/><path d="M1606 449.92l-6.66-20.52h13.33zm-2.6-17.56l2.6 8 2.6-8z" stroke="#3a414a" stroke-width=".05" fill="#3a414a"/><use xlink:href="#E" transform="matrix(1,0,0,1,1537.5874565972222,347.2932764105697) translate(0 30.138888888888893)"/><path d="M1479.4 1120h157.9" stroke="#3a414a" stroke-width="3" fill="none"/><path d="M1479.45 1121.47h-1.6l.06-1.47-.04-1.47h1.6z" stroke="#3a414a" stroke-width=".05" fill="#3a414a"/><path d="M1653.06 1120l-14.27 4.63v-9.27z" stroke="#3a414a" stroke-width="3" fill="#3a414a"/><path d="M1419.4 1426.1h-2.96V1221h2.95zm0-233.1h-2.96v-11.5h2.95z" stroke="#3a414a" stroke-width=".05" fill="#3a414a"/><path d="M1417.9 1180l1.5-.05v1.6h-2.96v-1.6z" fill="#3a414a"/><path stroke="#3a414a" stroke-width=".05" fill="#3a414a"/><path d="M1417.9 1441.87l-4.62-14.27h9.27z" fill="#3a414a"/><path d="M1417.9 1446.64l-6.65-20.52h13.33zm-2.6-17.57l2.6 8.02 2.62-8.02zM1719.4 1439.38h-2.96V1222h2.95zm0-245.38h-2.96v-12.5h2.95z" stroke="#3a414a" stroke-width=".05" fill="#3a414a"/><path d="M1717.9 1180l1.5-.05v1.6h-2.96v-1.6z" fill="#3a414a"/><path stroke="#3a414a" stroke-width=".05" fill="#3a414a"/><path d="M1717.9 1455.15l-4.62-14.27h9.27z" fill="#3a414a"/><path d="M1717.9 1459.92l-6.65-20.52h13.33zm-2.6-17.57l2.6 8.02 2.62-8zM1713.08 858.6l1.14.3 1.1.44 1 .6.88.77.76.9.62 1 .45 1.1.27 1.13.1 1.1v192.57h-2.96V866.06l-.06-.77-.17-.7-.26-.65-.37-.6-.46-.55-.53-.46-.6-.37-.66-.27-.68-.17-.77-.05h-313.32v-2.96h313.44z" stroke="#3a414a" stroke-width=".05" fill="#3a414a"/><path d="M1719.4 1060.06l-1.5-.06-1.46.05v-1.6h2.95z" fill="#3a414a"/><path stroke="#3a414a" stroke-width=".05" fill="#3a414a"/><path d="M1397.03 864.63l-14.26-4.63 14.26-4.63z" fill="#3a414a"/><path d="M1398.5 866.66L1378 860l20.5-6.66zm-10.96-6.66l8.02 2.6v-5.2zM1319.4 1113.94l.05.77.16.7.28.65.38.6.46.55.54.46.6.37.66.27.68.16.77.07h13.32v2.94h-13.45l-1.1-.08-1.15-.3-1.08-.44-1-.6-.9-.77-.76-.9-.6-1-.46-1.1-.28-1.13-.08-1.1v-107.9h2.95zm0-179.94h-2.96v-12.5h2.95z" stroke="#3a414a" stroke-width=".05" fill="#3a414a"/><path d="M1319.4 921.54h-2.96V920h2.95z" fill="#3a414a"/><path stroke="#3a414a" stroke-width=".05" fill="#3a414a"/><path d="M1353.06 1120l-14.27 4.63v-9.27z" fill="#3a414a"/><path d="M1357.83 1120l-20.5 6.66v-13.33zm-17.56 2.6l8.02-2.6-8.03-2.6zM927.48 779.38h-2.96v-123.2h2.96z" stroke="#3a414a" stroke-width=".05" fill="#3a414a"/><path d="M932.35 584h-12.7l6.35-11z" fill="#3a414a"/><path d="M934.05 584h-3.4l-4.65-8.05-4.65 8.05h-3.4l8.05-13.95z" stroke="#3a414a" stroke-width=".05" fill="#3a414a"/><path d="M926 795.15l-4.63-14.27h9.26z" fill="#3a414a"/><path d="M926 799.92l-6.66-20.5h13.32zm-2.6-17.56l2.6 8 2.6-8z" stroke="#3a414a" stroke-width=".05" fill="#3a414a"/><path d="M864.5 860H733.1" stroke="#3a414a" stroke-width="3" fill="none"/><path d="M866 860l.05 1.48h-1.6v-2.96h1.6z" stroke="#3a414a" stroke-width=".05" fill="#3a414a"/><path d="M717.35 860l14.26-4.63v9.26z" stroke="#3a414a" stroke-width="3" fill="#3a414a"/><path d="M1126 803.25c0 12.83-10.4 23.24-23.24 23.24-12.84 0-23.25-10.42-23.25-23.25 0-12.84 10.42-23.25 23.26-23.25 12.83 0 23.24 10.4 23.24 23.25z" stroke="#000" stroke-width="3" fill="#fff"/><g><use xlink:href="#F" transform="matrix(1,0,0,1,1084.5095006334218,785) translate(3.3697916666666643 30.138888888888893)"/></g><path d="M987.5 860h249.8" stroke="#3a414a" stroke-width="3" fill="none"/><path d="M987.54 861.48h-1.6L986 860l-.05-1.48h1.6z" stroke="#3a414a" stroke-width=".05" fill="#3a414a"/><path d="M1253.06 860l-14.27 4.63v-9.26z" stroke="#3a414a" stroke-width="3" fill="#3a414a"/><path d="M1544.5 510h-537.88" stroke="#3a414a" stroke-width="3" fill="none"/><path d="M1546 510l.05 1.48h-1.6v-2.96h1.6z" stroke="#3a414a" stroke-width=".05" fill="#3a414a"/><path d="M990.85 510l14.27-4.63v9.26z" stroke="#3a414a" stroke-width="3" fill="#3a414a"/><path d="M1941.47 1704.06l-.08 1.1-.3 1.15-.44 1.1-.6 1-.77.9-.9.75-1 .6-1.1.46-1.13.3-1.1.07H658.42l-1.1-.08-1.15-.3-1.08-.44-1-.6-.9-.77-.76-.9-.6-1-.46-1.1-.28-1.13-.1-1.1v-690.9H654v690.77l.06.77.16.7.26.65.37.6.46.55.53.46.6.37.66.27.68.16.77.07h1275.4l.76-.07.7-.16.65-.27.6-.37.55-.46.46-.54.37-.6.27-.66.16-.7.07-.76V613.5h2.94zm0-1118.56h-2.94V574h2.94z" stroke="#3a414a" stroke-width=".05" fill="#3a414a"/><path d="M1940 572.5l1.47-.05v1.6h-2.94v-1.6z" fill="#3a414a"/><path stroke="#3a414a" stroke-width=".05" fill="#3a414a"/><path d="M655.46 934h-5.94l2.97-9.15z" fill="#3a414a"/><path d="M657 934h-3.1l-1.4-4.37-1.43 4.37h-3.1l4.52-13.92z" stroke="#3a414a" stroke-width=".05" fill="#3a414a"/><defs><path d="M52 0l541-1490h220L1361 0h-200l-149-416H398L254 0H52zm404-582h497c-103-290-145-390-251-756-108 377-145 460-246 756" id="G"/><path d="M458 0L52-1490h194c108 439 233 855 324 1313 92-459 221-873 331-1313h216c110 438 234 854 330 1307 92-455 216-869 323-1307h196L1558 0h-221l-256-944c-26-95-50-200-73-331-22 122-44 223-73 331L680 0H458" id="H"/><path d="M657 26c-323 0-524-166-541-416h195c15 169 171 246 346 246 202 0 356-106 356-265 5-203-294-238-475-293-239-73-380-191-380-389 0-252 224-419 512-419 294 0 499 171 508 396H992c-17-145-151-228-328-228-193 0-321 102-321 242 0 156 175 211 284 241l149 41c160 44 422 134 422 412 0 244-197 432-541 432" id="I"/><g id="a"><use transform="matrix(0.010850694444444444,0,0,0.010850694444444444,0,0)" xlink:href="#G"/><use transform="matrix(0.010850694444444444,0,0,0.010850694444444444,14.073350694444445,0)" xlink:href="#H"/><use transform="matrix(0.010850694444444444,0,0,0.010850694444444444,35.970052083333336,0)" xlink:href="#I"/></g><path d="M613 24c-304 0-509-231-509-576 0-350 205-580 509-580 216 0 392 114 453 309l-173 49c-33-115-133-197-280-197-223 0-326 196-326 419 0 220 103 415 326 415 150 0 252-85 285-206l172 49C1010-95 832 24 613 24" id="J"/><path d="M613 24c-304 0-509-231-509-576 0-350 205-580 509-580 305 0 511 230 511 580 0 345-206 576-511 576zm0-161c226 0 329-195 329-415 0-222-103-419-329-419-223 0-326 196-326 419 0 220 103 415 326 415" id="K"/><path d="M537 14c-226 0-379-139-379-422v-710h180v695c0 172 97 275 253 275 160 0 281-109 281-300v-670h181V0H879v-209C806-46 684 14 537 14" id="L"/><path d="M338-670V0H158v-1118h173l1 207c72-158 192-221 342-221 226 0 378 139 378 422V0H872v-695c0-172-96-275-252-275-161 0-282 109-282 300" id="M"/><path d="M598-1118v154H368v674c0 100 37 144 132 144 23 0 62-6 92-12L629-6c-37 13-88 20-134 20-193 0-307-107-307-290v-688H20v-154h168v-266h180v266h230" id="N"/><g id="b"><use transform="matrix(0.010850694444444444,0,0,0.010850694444444444,0,0)" xlink:href="#G"/><use transform="matrix(0.010850694444444444,0,0,0.010850694444444444,15.33203125,0)" xlink:href="#J"/><use transform="matrix(0.010850694444444444,0,0,0.010850694444444444,28.02734375,0)" xlink:href="#J"/><use transform="matrix(0.010850694444444444,0,0,0.010850694444444444,40.72265625,0)" xlink:href="#K"/><use transform="matrix(0.010850694444444444,0,0,0.010850694444444444,54.04730902777778,0)" xlink:href="#L"/><use transform="matrix(0.010850694444444444,0,0,0.010850694444444444,67.1875,0)" xlink:href="#M"/><use transform="matrix(0.010850694444444444,0,0,0.010850694444444444,80.31684027777777,0)" xlink:href="#N"/></g><path d="M180 0v-1490h528c311 0 458 177 458 395 0 191-114 278-244 313v14c139 9 302 137 302 371 0 225-148 397-499 397H180zm190-168h350c232 0 321-102 321-231 0-149-120-277-311-277H370v508zm0-668h328c160 0 286-101 286-255 0-129-87-231-280-231H370v486" id="O"/><path d="M158 0v-1118h174v172h12c41-113 157-188 290-188 26 0 70 2 91 3v181c-11-2-60-10-108-10-161 0-279 109-279 260V0H158" id="P"/><path d="M409 0L70-1118h191c89 329 165 560 243 925 75-353 154-601 240-925h192c85 325 161 564 235 922 77-354 157-598 244-922h191L1267 0h-179c-86-307-176-590-250-913C763-588 675-308 588 0H409" id="Q"/><path d="M538 24C308 24 148-78 108-271l171-41c32 123 123 178 257 178 156 0 256-77 256-169 0-77-54-128-164-154l-186-44c-203-48-300-148-300-305 0-192 176-326 414-326 230 0 351 112 402 269l-163 42c-31-80-94-158-238-158-133 0-233 69-233 162 0 83 57 129 188 160l169 40c203 48 298 149 298 302 0 196-179 339-441 339" id="R"/><path d="M628 24c-324 0-524-230-524-574 0-343 198-582 503-582 237 0 487 146 487 559v75H286c9 234 145 362 343 362 132 0 231-58 273-172l174 48C1024-91 857 24 628 24zM287-650h624c-17-190-120-322-304-322-192 0-309 151-320 322" id="S"/><g id="c"><use transform="matrix(0.015190972222222224,0,0,0.015190972222222224,0,0)" xlink:href="#O"/><use transform="matrix(0.015190972222222224,0,0,0.015190972222222224,20.35590277777778,0)" xlink:href="#P"/><use transform="matrix(0.015190972222222224,0,0,0.015190972222222224,31.551649305555557,0)" xlink:href="#K"/><use transform="matrix(0.015190972222222224,0,0,0.015190972222222224,49.64409722222223,0)" xlink:href="#Q"/><use transform="matrix(0.015190972222222224,0,0,0.015190972222222224,75.10416666666667,0)" xlink:href="#R"/><use transform="matrix(0.015190972222222224,0,0,0.015190972222222224,91.5256076388889,0)" xlink:href="#S"/><use transform="matrix(0.015190972222222224,0,0,0.015190972222222224,109.66362847222223,0)" xlink:href="#P"/></g><path d="M471 26C259 26 90-98 90-318c0-256 228-303 435-329 202-27 287-16 287-108 0-139-79-219-234-219-161 0-248 86-283 164l-173-57c86-203 278-265 451-265 150 0 419 46 419 395V0H815v-152h-12C765-73 660 26 471 26zm31-159c199 0 310-134 310-271v-155c-30 35-226 55-295 64-131 17-246 59-246 186 0 116 97 176 231 176" id="T"/><path d="M577 24c-279 0-473-224-473-580 0-354 195-576 474-576 218 0 287 134 324 193h14v-551h180V0H922v-173h-20C865-111 790 24 577 24zm27-161c203 0 314-172 314-421 0-247-108-413-314-413-212 0-317 181-317 413 0 235 108 421 317 421" id="U"/><g id="d"><use transform="matrix(0.015190972222222224,0,0,0.015190972222222224,0,0)" xlink:href="#O"/><use transform="matrix(0.015190972222222224,0,0,0.015190972222222224,20.35590277777778,0)" xlink:href="#T"/><use transform="matrix(0.015190972222222224,0,0,0.015190972222222224,37.825520833333336,0)" xlink:href="#R"/><use transform="matrix(0.015190972222222224,0,0,0.015190972222222224,54.24696180555556,0)" xlink:href="#S"/><use transform="matrix(0.015190972222222224,0,0,0.015190972222222224,72.38498263888889,0)" xlink:href="#U"/></g><path d="M763 24c-353 0-583-224-583-531v-983h190v968c0 214 149 370 393 370 243 0 391-156 391-370v-968h190v983c0 307-230 531-581 531" id="V"/><g id="e"><use transform="matrix(0.015190972222222224,0,0,0.015190972222222224,0,0)" xlink:href="#V"/><use transform="matrix(0.015190972222222224,0,0,0.015190972222222224,23.151041666666668,0)" xlink:href="#R"/><use transform="matrix(0.015190972222222224,0,0,0.015190972222222224,39.57248263888889,0)" xlink:href="#S"/><use transform="matrix(0.015190972222222224,0,0,0.015190972222222224,57.71050347222223,0)" xlink:href="#P"/></g><path d="M730-137c145 0 253-29 323-105v-327H716v-156h528v534C1148-51 964 20 729 20c-394 0-598-279-607-678v-127c-5-410 194-690 585-691 310-1 499 171 537 447h-192c-36-193-151-289-344-289-285 0-393 220-393 528v119c-5 296 140 534 415 534" id="W"/><path d="M584 20C278 26 81-227 91-551c10-320 175-545 491-551 308-5 503 247 494 573-9 322-175 543-492 549zm-2-970c-208 0-305 185-305 421 0 216 106 398 307 398 211 0 307-186 307-420 0-214-109-399-309-399" id="X"/><path d="M521 20C240 20 96-239 96-550c0-303 147-552 427-552 132 0 235 47 309 140l9-120h169V-26c4 277-183 454-459 452-165-1-334-81-400-187l96-111c79 98 176 147 291 147 180 1 288-109 286-290v-93C750-23 649 20 521 20zm48-965c-209 0-287 178-287 416 0 217 86 392 285 392 117 0 202-53 257-159v-494c-57-103-142-155-255-155" id="Y"/><path d="M341 0H156v-1536h185V0" id="Z"/><path d="M599-131c141 0 220-65 285-146l113 88C906-50 770 20 589 20 281 21 93-214 93-545c0-223 93-397 233-485 74-48 154-72 240-72 300 2 449 218 445 537v77H278c0 197 129 357 321 357zm227-509c-3-180-88-310-260-310-170 0-264 140-282 310h542" id="aa"/><g id="f"><use transform="matrix(0.015190972222222224,0,0,0.015190972222222224,0,0)" xlink:href="#W"/><use transform="matrix(0.015190972222222224,0,0,0.015190972222222224,21.191406250000004,0)" xlink:href="#X"/><use transform="matrix(0.015190972222222224,0,0,0.015190972222222224,38.93446180555556,0)" xlink:href="#X"/><use transform="matrix(0.015190972222222224,0,0,0.015190972222222224,56.677517361111114,0)" xlink:href="#Y"/><use transform="matrix(0.015190972222222224,0,0,0.015190972222222224,74.13194444444446,0)" xlink:href="#Z"/><use transform="matrix(0.015190972222222224,0,0,0.015190972222222224,81.6818576388889,0)" xlink:href="#aa"/></g><path d="M973-380H363L226 0H28l556-1456h168L1309 0h-197zM421-538h495l-248-681" id="ab"/><path d="M589-945c-131 0-219 81-264 174V0H140v-1082h175l6 136c83-104 191-156 324-156 229 0 346 129 346 387V0H806v-716c-2-153-65-229-217-229" id="ac"/><path d="M561-1102c238-4 403 126 403 351v498c0 99 13 178 38 237V0H808c-11-21-19-59-26-114C696-25 593 20 474 20c-199 0-368-130-365-320 4-251 214-359 490-356h180v-85c-1-135-86-212-229-212-115 0-232 67-233 171H131c20-205 206-316 430-320zM294-326c0 117 90 185 207 185 122 0 239-75 278-162v-222H634c-227 0-340 66-340 199" id="ad"/><path d="M494-271l252-811h198L509 167C425 381 299 474 84 421V271c167 16 242-37 283-173l41-110L22-1082h202" id="ae"/><path d="M456 20C285 20 205-92 206-268v-671H9v-143h197v-262h185v262h202v143H391v671c-9 125 92 149 207 118V0c-49 13-96 20-142 20" id="af"/><path d="M341 0H156v-1082h185V0zm-91-1264c-68 0-108-42-109-105 0-62 41-107 109-107s110 44 110 107-42 105-110 105" id="ag"/><path d="M277-555c0 244 77 420 297 424 127 2 249-93 255-210h175C980-127 805 20 574 20 258 20 81-222 92-562c11-319 164-533 481-540 237-5 426 165 431 392H829c-7-133-115-242-256-240-209 4-296 166-296 395" id="ah"/><path d="M538-131c121 0 232-49 232-156 0-50-20-88-56-117-73-60-334-92-420-143-92-55-162-110-162-238 0-190 192-317 400-317 223 0 414 129 413 338H759c0-108-110-186-227-186-119 0-215 53-215 159 0 45 18 78 53 101 76 52 331 90 416 139 98 57 169 115 169 251C955-92 760 20 538 20c-176 0-314-68-386-174-38-55-57-115-57-179h185c6 129 116 202 258 202" id="ai"/><g id="g"><use transform="matrix(0.015190972222222224,0,0,0.015190972222222224,0,0)" xlink:href="#ab"/><use transform="matrix(0.015190972222222224,0,0,0.015190972222222224,20.29513888888889,0)" xlink:href="#ac"/><use transform="matrix(0.015190972222222224,0,0,0.015190972222222224,37.4609375,0)" xlink:href="#ad"/><use transform="matrix(0.015190972222222224,0,0,0.015190972222222224,54.38368055555556,0)" xlink:href="#Z"/><use transform="matrix(0.015190972222222224,0,0,0.015190972222222224,61.93359375,0)" xlink:href="#ae"/><use transform="matrix(0.015190972222222224,0,0,0.015190972222222224,76.65364583333334,0)" xlink:href="#af"/><use transform="matrix(0.015190972222222224,0,0,0.015190972222222224,86.81640625000001,0)" xlink:href="#ag"/><use transform="matrix(0.015190972222222224,0,0,0.015190972222222224,94.36631944444446,0)" xlink:href="#ah"/><use transform="matrix(0.015190972222222224,0,0,0.015190972222222224,110.65104166666669,0)" xlink:href="#ai"/></g><path d="M1288 0h-193v-673H361V0H169v-1456h192v626h734v-626h193V0" id="aj"/><path d="M491 20c-241-1-355-148-355-398v-704h185v699c0 164 67 246 200 246 141 0 235-53 282-158v-787h185V0H812l-4-107C736-22 630 20 491 20" id="ak"/><path d="M634-1102c292 0 422 254 422 573 0 298-143 547-420 549-137 0-242-48-317-145L310 0H140v-1536h185v573c75-93 178-139 309-139zm-44 965c207 0 281-175 281-413 0-224-79-395-283-395-122 0-210 57-263 170v468c57 113 145 170 265 170" id="al"/><g id="h"><use transform="matrix(0.015190972222222224,0,0,0.015190972222222224,0,0)" xlink:href="#aj"/><use transform="matrix(0.015190972222222224,0,0,0.015190972222222224,22.178819444444446,0)" xlink:href="#ak"/><use transform="matrix(0.015190972222222224,0,0,0.015190972222222224,39.329427083333336,0)" xlink:href="#al"/></g><path d="M158 0v-1118h175l1 205c55-151 181-225 313-225 147 0 245 90 285 228 53-141 190-228 352-228 194 0 352 125 352 384V0h-181v-749c0-161-105-225-225-225-151 0-243 103-243 244V0H807v-767c0-124-93-207-219-207-131 0-250 92-250 270V0H158" id="am"/><path d="M126 0v-134l627-806v-11H146v-167h839v143L376-178v11h629V0H126" id="an"/><g id="i"><use transform="matrix(0.015190972222222224,0,0,0.015190972222222224,0,0)" xlink:href="#G"/><use transform="matrix(0.015190972222222224,0,0,0.015190972222222224,21.464843750000004,0)" xlink:href="#am"/><use transform="matrix(0.015190972222222224,0,0,0.015190972222222224,48.71744791666667,0)" xlink:href="#T"/><use transform="matrix(0.015190972222222224,0,0,0.015190972222222224,66.18706597222223,0)" xlink:href="#an"/><use transform="matrix(0.015190972222222224,0,0,0.015190972222222224,82.91232638888889,0)" xlink:href="#K"/><use transform="matrix(0.015190972222222224,0,0,0.015190972222222224,101.56684027777777,0)" xlink:href="#M"/></g><path d="M783 20c-382 0-661-292-661-764 0-473 279-766 661-766 302 0 548 182 601 489h-190c-42-204-217-313-411-313-268 0-476 208-476 590 0 381 209 588 476 588 195 0 369-110 411-313h190c-52 303-296 489-601 489" id="ao"/><path d="M338-1490V0H158v-1490h180" id="ap"/><path d="M180 0v-1490h901v168H370v510h643v168H370V0H180" id="aq"/><g id="j"><use transform="matrix(0.015190972222222224,0,0,0.015190972222222224,0,0)" xlink:href="#ao"/><use transform="matrix(0.015190972222222224,0,0,0.015190972222222224,22.725694444444446,0)" xlink:href="#ap"/><use transform="matrix(0.015190972222222224,0,0,0.015190972222222224,30.26041666666667,0)" xlink:href="#K"/><use transform="matrix(0.015190972222222224,0,0,0.015190972222222224,48.91493055555556,0)" xlink:href="#L"/><use transform="matrix(0.015190972222222224,0,0,0.015190972222222224,67.31119791666667,0)" xlink:href="#U"/><use transform="matrix(0.015190972222222224,0,0,0.015190972222222224,86.36067708333334,0)" xlink:href="#aq"/><use transform="matrix(0.015190972222222224,0,0,0.015190972222222224,103.81510416666669,0)" xlink:href="#P"/><use transform="matrix(0.015190972222222224,0,0,0.015190972222222224,115.01085069444446,0)" xlink:href="#K"/><use transform="matrix(0.015190972222222224,0,0,0.015190972222222224,133.66536458333334,0)" xlink:href="#M"/><use transform="matrix(0.015190972222222224,0,0,0.015190972222222224,152.04644097222223,0)" xlink:href="#N"/></g><path d="M180 0v-1490h510c348 0 508 194 508 460 0 198-88 351-276 417L1256 0h-220L726-579c-117 2-238 0-356 1V0H180zm190-747h312c235 0 327-108 327-283 0-177-92-293-329-293H370v576" id="ar"/><g id="k"><use transform="matrix(0.015190972222222224,0,0,0.015190972222222224,0,0)" xlink:href="#ar"/><use transform="matrix(0.015190972222222224,0,0,0.015190972222222224,19.56597222222222,0)" xlink:href="#S"/><use transform="matrix(0.015190972222222224,0,0,0.015190972222222224,38.0078125,0)" xlink:href="#T"/><use transform="matrix(0.015190972222222224,0,0,0.015190972222222224,55.47743055555556,0)" xlink:href="#J"/><use transform="matrix(0.015190972222222224,0,0,0.015190972222222224,73.25086805555556,0)" xlink:href="#N"/></g><path d="M180 0v-1490h510c348 0 508 209 508 474 0 266-160 477-507 477H370V0H180zm190-706h312c236 0 327-133 327-310 0-176-91-307-329-307H370v617" id="as"/><g id="l"><use transform="matrix(0.015190972222222224,0,0,0.015190972222222224,0,0)" xlink:href="#I"/><use transform="matrix(0.015190972222222224,0,0,0.015190972222222224,19.960937500000004,0)" xlink:href="#as"/><use transform="matrix(0.015190972222222224,0,0,0.015190972222222224,37.536892361111114,0)" xlink:href="#G"/></g><g id="m"><use transform="matrix(0.015190972222222224,0,0,0.015190972222222224,0,0)" xlink:href="#G"/><use transform="matrix(0.015190972222222224,0,0,0.015190972222222224,21.464843750000004,0)" xlink:href="#am"/><use transform="matrix(0.015190972222222224,0,0,0.015190972222222224,48.71744791666667,0)" xlink:href="#T"/><use transform="matrix(0.015190972222222224,0,0,0.015190972222222224,66.18706597222223,0)" xlink:href="#an"/><use transform="matrix(0.015190972222222224,0,0,0.015190972222222224,82.91232638888889,0)" xlink:href="#K"/><use transform="matrix(0.015190972222222224,0,0,0.015190972222222224,101.56684027777777,0)" xlink:href="#M"/></g><path d="M370-1490V0H180v-1490h190" id="at"/><g id="n"><use transform="matrix(0.015190972222222224,0,0,0.015190972222222224,0,0)" xlink:href="#G"/><use transform="matrix(0.015190972222222224,0,0,0.015190972222222224,21.464843750000004,0)" xlink:href="#as"/><use transform="matrix(0.015190972222222224,0,0,0.015190972222222224,41.33463541666667,0)" xlink:href="#at"/></g><path d="M789 20c-398 0-667-293-667-764 0-473 273-766 655-766 315 0 558 198 612 487h-196c-61-191-204-311-415-311-262 0-471 207-471 590 0 380 208 588 482 588 249 0 420-165 425-427H828v-166h572v163c0 370-256 606-611 606" id="au"/><path d="M140 405l46-156c120 36 205 19 263-150l32-93L54-1118h197c107 313 237 620 324 950 87-331 219-637 326-950h196L606 167c-68 178-176 259-334 259-64 0-113-12-132-21" id="av"/><g id="o"><use transform="matrix(0.015190972222222224,0,0,0.015190972222222224,0,0)" xlink:href="#au"/><use transform="matrix(0.015190972222222224,0,0,0.015190972222222224,23.211805555555557,0)" xlink:href="#T"/><use transform="matrix(0.015190972222222224,0,0,0.015190972222222224,40.681423611111114,0)" xlink:href="#N"/><use transform="matrix(0.015190972222222224,0,0,0.015190972222222224,50.55555555555556,0)" xlink:href="#S"/><use transform="matrix(0.015190972222222224,0,0,0.015190972222222224,68.13151041666667,0)" xlink:href="#Q"/><use transform="matrix(0.015190972222222224,0,0,0.015190972222222224,93.59157986111111,0)" xlink:href="#T"/><use transform="matrix(0.015190972222222224,0,0,0.015190972222222224,110.60546875,0)" xlink:href="#av"/></g><g id="p"><use transform="matrix(0.015190972222222224,0,0,0.015190972222222224,0,0)" xlink:href="#G"/><use transform="matrix(0.015190972222222224,0,0,0.015190972222222224,21.464843750000004,0)" xlink:href="#am"/><use transform="matrix(0.015190972222222224,0,0,0.015190972222222224,48.71744791666667,0)" xlink:href="#T"/><use transform="matrix(0.015190972222222224,0,0,0.015190972222222224,66.18706597222223,0)" xlink:href="#an"/><use transform="matrix(0.015190972222222224,0,0,0.015190972222222224,82.91232638888889,0)" xlink:href="#K"/><use transform="matrix(0.015190972222222224,0,0,0.015190972222222224,101.56684027777777,0)" xlink:href="#M"/></g><path d="M180 0v-1490h190v1322h690V0H180" id="aw"/><path d="M65 0l393-574-370-544h210c88 136 192 297 267 435 67-142 176-302 264-435h206L661-564 1053 0H844c-94-144-206-310-287-458C484-308 366-142 273 0H65" id="ax"/><g id="q"><use transform="matrix(0.015190972222222224,0,0,0.015190972222222224,0,0)" xlink:href="#aw"/><use transform="matrix(0.015190972222222224,0,0,0.015190972222222224,17.591145833333336,0)" xlink:href="#S"/><use transform="matrix(0.015190972222222224,0,0,0.015190972222222224,35.03038194444445,0)" xlink:href="#ax"/></g><path d="M338-670V0H158v-1490h180v566c73-149 190-208 336-208 226 0 379 139 379 422V0H872v-695c0-172-96-275-252-275-161 0-282 109-282 300" id="ay"/><path d="M180 0v-1490h190v644h782v-644h190V0h-190v-678H370V0H180" id="az"/><path d="M677 24c-213 0-288-135-325-197h-20V0H158v-1490h180v551h14c37-59 106-193 324-193 279 0 474 222 474 576 0 356-194 580-473 580zm-27-161c209 0 317-186 317-421 0-232-105-413-317-413-206 0-314 166-314 413 0 249 111 421 314 421" id="aA"/><g id="r"><use transform="matrix(0.015190972222222224,0,0,0.015190972222222224,0,0)" xlink:href="#ao"/><use transform="matrix(0.015190972222222224,0,0,0.015190972222222224,22.725694444444446,0)" xlink:href="#ay"/><use transform="matrix(0.015190972222222224,0,0,0.015190972222222224,41.12196180555556,0)" xlink:href="#T"/><use transform="matrix(0.015190972222222224,0,0,0.015190972222222224,58.591579861111114,0)" xlink:href="#N"/><use transform="matrix(0.015190972222222224,0,0,0.015190972222222224,68.76953125,0)" xlink:href="#az"/><use transform="matrix(0.015190972222222224,0,0,0.015190972222222224,91.89019097222223,0)" xlink:href="#T"/><use transform="matrix(0.015190972222222224,0,0,0.015190972222222224,109.35980902777779,0)" xlink:href="#M"/><use transform="matrix(0.015190972222222224,0,0,0.015190972222222224,127.74088541666669,0)" xlink:href="#U"/><use transform="matrix(0.015190972222222224,0,0,0.015190972222222224,146.79036458333334,0)" xlink:href="#ap"/><use transform="matrix(0.015190972222222224,0,0,0.015190972222222224,154.32508680555557,0)" xlink:href="#S"/><use transform="matrix(0.015190972222222224,0,0,0.015190972222222224,172.4631076388889,0)" xlink:href="#P"/><use transform="matrix(0.015190972222222224,0,0,0.015190972222222224,184.66145833333337,0)" xlink:href="#aw"/><use transform="matrix(0.015190972222222224,0,0,0.015190972222222224,202.2526041666667,0)" xlink:href="#T"/><use transform="matrix(0.015190972222222224,0,0,0.015190972222222224,219.72222222222229,0)" xlink:href="#am"/><use transform="matrix(0.015190972222222224,0,0,0.015190972222222224,246.97482638888894,0)" xlink:href="#aA"/><use transform="matrix(0.015190972222222224,0,0,0.015190972222222224,266.0243055555556,0)" xlink:href="#U"/><use transform="matrix(0.015190972222222224,0,0,0.015190972222222224,285.0737847222223,0)" xlink:href="#T"/></g><path d="M600 0L52-1490h200c166 485 304 806 458 1336 156-533 285-846 449-1336h202L819 0H600" id="aB"/><path d="M158 0v-1118h180V0H158zm91-1301c-68 0-125-53-125-119s57-119 125-119c69 0 126 53 126 119s-57 119-126 119" id="aC"/><g id="s"><use transform="matrix(0.015190972222222224,0,0,0.015190972222222224,0,0)" xlink:href="#aB"/><use transform="matrix(0.015190972222222224,0,0,0.015190972222222224,19.884982638888893,0)" xlink:href="#T"/><use transform="matrix(0.015190972222222224,0,0,0.015190972222222224,37.35460069444445,0)" xlink:href="#ap"/><use transform="matrix(0.015190972222222224,0,0,0.015190972222222224,44.88932291666667,0)" xlink:href="#aC"/><use transform="matrix(0.015190972222222224,0,0,0.015190972222222224,52.42404513888889,0)" xlink:href="#U"/><use transform="matrix(0.015190972222222224,0,0,0.015190972222222224,71.47352430555556,0)" xlink:href="#T"/><use transform="matrix(0.015190972222222224,0,0,0.015190972222222224,88.94314236111111,0)" xlink:href="#N"/><use transform="matrix(0.015190972222222224,0,0,0.015190972222222224,98.81727430555556,0)" xlink:href="#K"/><use transform="matrix(0.015190972222222224,0,0,0.015190972222222224,117.47178819444444,0)" xlink:href="#P"/><use transform="matrix(0.015190972222222224,0,0,0.015190972222222224,129.67013888888889,0)" xlink:href="#aw"/><use transform="matrix(0.015190972222222224,0,0,0.015190972222222224,147.26128472222223,0)" xlink:href="#T"/><use transform="matrix(0.015190972222222224,0,0,0.015190972222222224,164.73090277777777,0)" xlink:href="#am"/><use transform="matrix(0.015190972222222224,0,0,0.015190972222222224,191.98350694444443,0)" xlink:href="#aA"/><use transform="matrix(0.015190972222222224,0,0,0.015190972222222224,211.0329861111111,0)" xlink:href="#U"/><use transform="matrix(0.015190972222222224,0,0,0.015190972222222224,230.08246527777774,0)" xlink:href="#T"/></g><path d="M180 0v-1490h908v168H370v486h669v168H370v500h727V0H180" id="aD"/><g id="t"><use transform="matrix(0.015190972222222224,0,0,0.015190972222222224,0,0)" xlink:href="#I"/><use transform="matrix(0.015190972222222224,0,0,0.015190972222222224,19.960937500000004,0)" xlink:href="#S"/><use transform="matrix(0.015190972222222224,0,0,0.015190972222222224,38.09895833333334,0)" xlink:href="#R"/><use transform="matrix(0.015190972222222224,0,0,0.015190972222222224,54.52039930555557,0)" xlink:href="#R"/><use transform="matrix(0.015190972222222224,0,0,0.015190972222222224,70.9418402777778,0)" xlink:href="#aC"/><use transform="matrix(0.015190972222222224,0,0,0.015190972222222224,78.47656250000003,0)" xlink:href="#K"/><use transform="matrix(0.015190972222222224,0,0,0.015190972222222224,97.13107638888891,0)" xlink:href="#M"/><use transform="matrix(0.015190972222222224,0,0,0.015190972222222224,115.5121527777778,0)" xlink:href="#aD"/><use transform="matrix(0.015190972222222224,0,0,0.015190972222222224,134.21223958333337,0)" xlink:href="#M"/><use transform="matrix(0.015190972222222224,0,0,0.015190972222222224,152.59331597222226,0)" xlink:href="#U"/><use transform="matrix(0.015190972222222224,0,0,0.015190972222222224,171.6427951388889,0)" xlink:href="#aw"/><use transform="matrix(0.015190972222222224,0,0,0.015190972222222224,189.23394097222226,0)" xlink:href="#T"/><use transform="matrix(0.015190972222222224,0,0,0.015190972222222224,206.70355902777783,0)" xlink:href="#am"/><use transform="matrix(0.015190972222222224,0,0,0.015190972222222224,233.95616319444449,0)" xlink:href="#aA"/><use transform="matrix(0.015190972222222224,0,0,0.015190972222222224,253.00564236111114,0)" xlink:href="#U"/><use transform="matrix(0.015190972222222224,0,0,0.015190972222222224,272.0551215277778,0)" xlink:href="#T"/></g><path fill="#333" d="M768-1560L288 224H28l480-1784h260" id="aE"/><path fill="#333" d="M633 22C291 22 81-200 81-553c0-345 210-579 537-579 292 0 525 185 525 567v84H378c7 183 109 277 260 277 105 0 184-46 216-132l272 51C1071-99 893 22 633 22zM380-669h474c-15-146-94-237-233-237-143 0-229 99-241 237" id="aF"/><path fill="#333" d="M428-647V0H128v-1118h283l4 231c63-156 176-245 348-245 232 0 384 159 384 421V0H847v-659c0-139-76-222-202-222-128 0-217 86-217 234" id="aG"/><path fill="#333" d="M537 19C279 19 81-185 81-557c0-382 206-575 454-575 190 0 278 113 318 202h10v-560h300V0H868v-179h-15C812-89 719 19 537 19zm92-241c153 0 240-134 240-336 0-203-86-334-240-334-158 0-240 138-240 334 0 197 84 336 240 336" id="aH"/><g id="u"><use transform="matrix(0.015190972222222224,0,0,0.015190972222222224,0,0)" xlink:href="#aE"/><use transform="matrix(0.015190972222222224,0,0,0.015190972222222224,12.076822916666668,0)" xlink:href="#aF"/><use transform="matrix(0.015190972222222224,0,0,0.015190972222222224,30.609809027777782,0)" xlink:href="#aG"/><use transform="matrix(0.015190972222222224,0,0,0.015190972222222224,49.978298611111114,0)" xlink:href="#aH"/></g><g id="v"><use transform="matrix(0.015190972222222224,0,0,0.015190972222222224,0,0)" xlink:href="#G"/><use transform="matrix(0.015190972222222224,0,0,0.015190972222222224,19.702690972222225,0)" xlink:href="#H"/><use transform="matrix(0.015190972222222224,0,0,0.015190972222222224,50.35807291666667,0)" xlink:href="#I"/></g><path d="M158 418v-1536h174v179h20c37-59 106-193 324-193 279 0 474 222 474 576 0 356-194 580-473 580-213 0-288-135-325-197h-14v591H158zm492-555c209 0 317-186 317-421 0-232-105-413-317-413-206 0-314 166-314 413 0 249 111 421 314 421" id="aI"/><g id="w"><use transform="matrix(0.015190972222222224,0,0,0.015190972222222224,0,0)" xlink:href="#I"/><use transform="matrix(0.015190972222222224,0,0,0.015190972222222224,19.960937500000004,0)" xlink:href="#N"/><use transform="matrix(0.015190972222222224,0,0,0.015190972222222224,29.83506944444445,0)" xlink:href="#S"/><use transform="matrix(0.015190972222222224,0,0,0.015190972222222224,47.973090277777786,0)" xlink:href="#aI"/></g><g id="x"><use transform="matrix(0.015190972222222224,0,0,0.015190972222222224,0,0)" xlink:href="#aq"/><use transform="matrix(0.015190972222222224,0,0,0.015190972222222224,17.317708333333336,0)" xlink:href="#L"/><use transform="matrix(0.015190972222222224,0,0,0.015190972222222224,35.71397569444445,0)" xlink:href="#M"/><use transform="matrix(0.015190972222222224,0,0,0.015190972222222224,54.09505208333334,0)" xlink:href="#J"/><use transform="matrix(0.015190972222222224,0,0,0.015190972222222224,71.86848958333334,0)" xlink:href="#N"/><use transform="matrix(0.015190972222222224,0,0,0.015190972222222224,82.04644097222223,0)" xlink:href="#aC"/><use transform="matrix(0.015190972222222224,0,0,0.015190972222222224,89.58116319444446,0)" xlink:href="#K"/><use transform="matrix(0.015190972222222224,0,0,0.015190972222222224,108.23567708333334,0)" xlink:href="#M"/><use transform="matrix(0.015190972222222224,0,0,0.015190972222222224,126.61675347222223,0)" xlink:href="#R"/></g><g id="y"><use transform="matrix(0.015190972222222224,0,0,0.015190972222222224,0,0)" xlink:href="#au"/><use transform="matrix(0.015190972222222224,0,0,0.015190972222222224,23.211805555555557,0)" xlink:href="#L"/><use transform="matrix(0.015190972222222224,0,0,0.015190972222222224,41.60807291666667,0)" xlink:href="#T"/><use transform="matrix(0.015190972222222224,0,0,0.015190972222222224,59.07769097222223,0)" xlink:href="#P"/><use transform="matrix(0.015190972222222224,0,0,0.015190972222222224,70.2734375,0)" xlink:href="#U"/><use transform="matrix(0.015190972222222224,0,0,0.015190972222222224,89.32291666666667,0)" xlink:href="#ar"/><use transform="matrix(0.015190972222222224,0,0,0.015190972222222224,109.19270833333333,0)" xlink:href="#T"/><use transform="matrix(0.015190972222222224,0,0,0.015190972222222224,126.66232638888887,0)" xlink:href="#aC"/><use transform="matrix(0.015190972222222224,0,0,0.015190972222222224,134.19704861111111,0)" xlink:href="#ap"/><use transform="matrix(0.015190972222222224,0,0,0.015190972222222224,141.73177083333334,0)" xlink:href="#aw"/><use transform="matrix(0.015190972222222224,0,0,0.015190972222222224,159.32291666666669,0)" xlink:href="#T"/><use transform="matrix(0.015190972222222224,0,0,0.015190972222222224,176.79253472222223,0)" xlink:href="#am"/><use transform="matrix(0.015190972222222224,0,0,0.015190972222222224,204.04513888888889,0)" xlink:href="#aA"/><use transform="matrix(0.015190972222222224,0,0,0.015190972222222224,223.09461805555554,0)" xlink:href="#U"/><use transform="matrix(0.015190972222222224,0,0,0.015190972222222224,242.1440972222222,0)" xlink:href="#T"/></g><path d="M180 0v-1490h270l367 940c28 72 75 218 110 339 35-117 81-264 110-339l362-940h271V0h-187c2-448-5-837 7-1287-157 497-311 829-483 1287H842C666-458 514-784 354-1284c12 438 5 843 7 1284H180" id="aJ"/><g id="z"><use transform="matrix(0.015190972222222224,0,0,0.015190972222222224,0,0)" xlink:href="#aw"/><use transform="matrix(0.015190972222222224,0,0,0.015190972222222224,17.591145833333336,0)" xlink:href="#aw"/><use transform="matrix(0.015190972222222224,0,0,0.015190972222222224,35.18229166666667,0)" xlink:href="#aJ"/><use transform="matrix(0.015190972222222224,0,0,0.015190972222222224,63.285590277777786,0)" xlink:href="#aw"/><use transform="matrix(0.015190972222222224,0,0,0.015190972222222224,80.87673611111111,0)" xlink:href="#T"/><use transform="matrix(0.015190972222222224,0,0,0.015190972222222224,98.34635416666667,0)" xlink:href="#am"/><use transform="matrix(0.015190972222222224,0,0,0.015190972222222224,125.59895833333334,0)" xlink:href="#aA"/><use transform="matrix(0.015190972222222224,0,0,0.015190972222222224,144.6484375,0)" xlink:href="#U"/><use transform="matrix(0.015190972222222224,0,0,0.015190972222222224,163.69791666666666,0)" xlink:href="#T"/></g><path d="M645 0H180v-1490h484c435 0 692 280 692 742 0 466-257 748-711 748zM370-168h263c363 0 539-218 539-580 0-358-176-574-521-574H370v1154" id="aK"/><g id="A"><use transform="matrix(0.015190972222222224,0,0,0.015190972222222224,0,0)" xlink:href="#aK"/><use transform="matrix(0.015190972222222224,0,0,0.015190972222222224,22.452256944444446,0)" xlink:href="#av"/><use transform="matrix(0.015190972222222224,0,0,0.015190972222222224,39.93706597222223,0)" xlink:href="#M"/><use transform="matrix(0.015190972222222224,0,0,0.015190972222222224,58.318142361111114,0)" xlink:href="#T"/><use transform="matrix(0.015190972222222224,0,0,0.015190972222222224,75.78776041666667,0)" xlink:href="#am"/><use transform="matrix(0.015190972222222224,0,0,0.015190972222222224,103.04036458333334,0)" xlink:href="#K"/><use transform="matrix(0.015190972222222224,0,0,0.015190972222222224,121.69487847222223,0)" xlink:href="#aK"/><use transform="matrix(0.015190972222222224,0,0,0.015190972222222224,144.14713541666669,0)" xlink:href="#O"/></g><path d="M158 0v-1490h180v865h22l478-493h223L593-638 1096 0H865L456-523 338-412V0H158" id="aL"/><g id="B"><use transform="matrix(0.015190972222222224,0,0,0.015190972222222224,0,0)" xlink:href="#O"/><use transform="matrix(0.015190972222222224,0,0,0.015190972222222224,20.35590277777778,0)" xlink:href="#S"/><use transform="matrix(0.015190972222222224,0,0,0.015190972222222224,38.493923611111114,0)" xlink:href="#U"/><use transform="matrix(0.015190972222222224,0,0,0.015190972222222224,57.543402777777786,0)" xlink:href="#P"/><use transform="matrix(0.015190972222222224,0,0,0.015190972222222224,68.73914930555556,0)" xlink:href="#K"/><use transform="matrix(0.015190972222222224,0,0,0.015190972222222224,87.39366319444444,0)" xlink:href="#J"/><use transform="matrix(0.015190972222222224,0,0,0.015190972222222224,105.16710069444444,0)" xlink:href="#aL"/></g><g id="C"><use transform="matrix(0.015190972222222224,0,0,0.015190972222222224,0,0)" xlink:href="#O"/><use transform="matrix(0.015190972222222224,0,0,0.015190972222222224,20.35590277777778,0)" xlink:href="#S"/><use transform="matrix(0.015190972222222224,0,0,0.015190972222222224,38.493923611111114,0)" xlink:href="#U"/><use transform="matrix(0.015190972222222224,0,0,0.015190972222222224,57.543402777777786,0)" xlink:href="#P"/><use transform="matrix(0.015190972222222224,0,0,0.015190972222222224,68.73914930555556,0)" xlink:href="#K"/><use transform="matrix(0.015190972222222224,0,0,0.015190972222222224,87.39366319444444,0)" xlink:href="#J"/><use transform="matrix(0.015190972222222224,0,0,0.015190972222222224,105.16710069444444,0)" xlink:href="#aL"/></g><g id="D"><use transform="matrix(0.015190972222222224,0,0,0.015190972222222224,0,0)" xlink:href="#au"/><use transform="matrix(0.015190972222222224,0,0,0.015190972222222224,23.211805555555557,0)" xlink:href="#L"/><use transform="matrix(0.015190972222222224,0,0,0.015190972222222224,41.60807291666667,0)" xlink:href="#T"/><use transform="matrix(0.015190972222222224,0,0,0.015190972222222224,59.07769097222223,0)" xlink:href="#P"/><use transform="matrix(0.015190972222222224,0,0,0.015190972222222224,70.2734375,0)" xlink:href="#U"/><use transform="matrix(0.015190972222222224,0,0,0.015190972222222224,89.32291666666667,0)" xlink:href="#P"/><use transform="matrix(0.015190972222222224,0,0,0.015190972222222224,101.03515625,0)" xlink:href="#T"/><use transform="matrix(0.015190972222222224,0,0,0.015190972222222224,118.50477430555556,0)" xlink:href="#aC"/><use transform="matrix(0.015190972222222224,0,0,0.015190972222222224,126.03949652777779,0)" xlink:href="#ap"/><use transform="matrix(0.015190972222222224,0,0,0.015190972222222224,133.57421875,0)" xlink:href="#R"/></g><path d="M768-1560L288 224H28l480-1784h260" id="aM"/><path d="M128 418v-1536h295v188h14c41-89 129-202 319-202 248 0 453 193 453 575 0 372-197 576-455 576-183 0-275-108-317-198h-9v597H128zm534-640c156 0 240-139 240-336 0-196-83-334-240-334-154 0-241 131-241 334 0 202 88 336 241 336" id="aN"/><path d="M633 22C291 22 81-200 81-553c0-345 210-579 537-579 292 0 525 185 525 567v84H378c7 183 109 277 260 277 105 0 184-46 216-132l272 51C1071-99 893 22 633 22zM380-669h474c-15-146-94-237-233-237-143 0-229 99-241 237" id="aO"/><path d="M128 0v-1118h290v195h12c54-169 184-238 367-200v268c-27-8-86-15-130-15-138 0-239 95-239 234V0H128" id="aP"/><path d="M572 22C302 22 117-98 78-306l279-48c29 105 101 156 224 156 114 0 185-48 185-115 0-118-228-130-337-155-215-49-322-150-322-317 0-215 187-347 470-347 265 0 424 116 466 298l-266 47c-24-76-87-130-196-130-98 0-174 46-174 113 0 56 38 95 144 117l201 40c216 44 320 143 320 302 0 220-207 367-500 367" id="aQ"/><path d="M628 22C291 22 81-210 81-554c0-346 210-578 547-578 336 0 547 232 547 578 0 344-211 576-547 576zm0-236c160 0 242-146 242-341 0-197-82-341-242-341S387-753 387-555c0 195 81 341 241 341" id="aR"/><path d="M428-647V0H128v-1118h283l4 231c63-156 176-245 348-245 232 0 384 159 384 421V0H847v-659c0-139-76-222-202-222-128 0-217 86-217 234" id="aS"/><path d="M440 22C227 22 68-92 68-313c0-250 202-322 422-343 195-21 271-24 271-105 0-95-63-149-175-149-116 0-187 57-211 129l-275-46c57-194 237-305 487-305 240 0 474 108 474 379V0H777v-155h-10C713-51 605 22 440 22zm85-211c140 0 238-93 238-211v-121c-37 26-156 42-222 51-111 16-185 59-185 149 0 87 70 132 169 132" id="aT"/><g id="E"><use transform="matrix(0.015190972222222224,0,0,0.015190972222222224,0,0)" xlink:href="#aM"/><use transform="matrix(0.015190972222222224,0,0,0.015190972222222224,12.076822916666668,0)" xlink:href="#aN"/><use transform="matrix(0.015190972222222224,0,0,0.015190972222222224,31.688368055555557,0)" xlink:href="#aO"/><use transform="matrix(0.015190972222222224,0,0,0.015190972222222224,50.22135416666667,0)" xlink:href="#aP"/><use transform="matrix(0.015190972222222224,0,0,0.015190972222222224,62.89062500000001,0)" xlink:href="#aQ"/><use transform="matrix(0.015190972222222224,0,0,0.015190972222222224,80.3146701388889,0)" xlink:href="#aR"/><use transform="matrix(0.015190972222222224,0,0,0.015190972222222224,99.39453125000001,0)" xlink:href="#aS"/><use transform="matrix(0.015190972222222224,0,0,0.015190972222222224,118.76302083333334,0)" xlink:href="#aT"/></g><path d="M653-1490V0H466v-1314h-10L96-1047v-204l324-239h233" id="aU"/><path d="M200 0l662-1311v-12H98v-167h963v177L400 0H200" id="aV"/><g id="F"><use transform="matrix(0.015190972222222224,0,0,0.015190972222222224,0,0)" xlink:href="#aU"/><use transform="matrix(0.015190972222222224,0,0,0.015190972222222224,12.654079861111112,0)" xlink:href="#aV"/></g></defs></g></svg>